<svg width="25" height="18" viewBox="0 0 25 18" fill="none" xmlns="http://www.w3.org/2000/svg">
<g clip-path="url(#clip0_3_181)">
<path d="M19.919 10.7237C19.919 6.90206 16.5758 0.510971 12.4647 0.510971C8.35366 0.510971 5.01046 6.90206 5.01046 10.7237C5.01046 12.5581 5.79586 14.3173 7.1938 15.6144C8.59174 16.9115 10.4877 17.6402 12.4647 17.6402C14.4417 17.6402 16.3377 16.9115 17.7357 15.6144C19.1336 14.3173 19.919 12.5581 19.919 10.7237Z" fill="#F6F6F6" stroke="black" stroke-miterlimit="10"/>
<path d="M13.582 9.42822H11.3481C10.4913 9.42822 9.79673 10.0727 9.79673 10.8676V12.9404C9.79673 13.7354 10.4913 14.3798 11.3481 14.3798H13.582C14.4388 14.3798 15.1334 13.7354 15.1334 12.9404V10.8676C15.1334 10.0727 14.4388 9.42822 13.582 9.42822Z" fill="white" stroke="black" stroke-miterlimit="10"/>
<path d="M11.3168 11.1771H13.6206" stroke="black" stroke-miterlimit="10" stroke-linecap="round"/>
<path d="M11.3168 12.631H13.6206" stroke="black" stroke-miterlimit="10" stroke-linecap="round"/>
<path d="M17.0804 3.28188C20.5399 -2.34627 25.6826 1.12282 24.4105 5.70019C23.2675 9.55078 20.9222 13.0014 17.6699 15.6178" stroke="black" stroke-miterlimit="10"/>
<path d="M7.91166 3.28188C4.45215 -2.34627 -0.690583 1.12282 0.581524 5.70019C1.71931 9.55289 4.06551 13.0048 7.32214 15.6178" stroke="black" stroke-miterlimit="10"/>
</g>
<defs>
<clipPath id="clip0_3_181">
<rect width="25" height="18" fill="white"/>
</clipPath>
</defs>
</svg>
