<svg width="18" height="24" viewBox="0 0 18 24" fill="none" xmlns="http://www.w3.org/2000/svg">
<g clip-path="url(#clip0_0_3556)">
<path d="M1.76855 6.25182V17.996C1.76855 18.9554 2.54943 19.7388 3.50561 19.7388H3.91198C4.86816 19.7388 5.64903 18.9554 5.64903 17.996V7.25115C5.64903 6.29179 6.42991 5.50832 7.38608 5.50832C8.34226 5.50832 9.12314 6.29179 9.12314 7.25115V16.0693C9.12314 17.0286 9.90401 17.8121 10.8602 17.8121H10.9797C11.9359 17.8121 12.7168 17.0286 12.7168 16.0693V5.28446C12.7168 4.3251 13.4976 3.54163 14.4538 3.54163H14.4937C15.4498 3.54163 16.2307 4.3251 16.2307 5.28446V16.9487" stroke="black" stroke-miterlimit="10" stroke-linecap="round" stroke-linejoin="round"/>
<path d="M17.5986 22.2704V18.2731H14.8656V22.2704H17.5986Z" stroke="black" stroke-miterlimit="10" stroke-linecap="round" stroke-linejoin="round"/>
<path d="M15.5698 17.4284V18.2758C15.5698 18.4517 15.7053 18.5876 15.8806 18.5876H16.5738C16.7491 18.5876 16.8846 18.4517 16.8846 18.2758V17.4284C16.8846 17.0606 16.5897 16.7648 16.2232 16.7648C15.8646 16.7648 15.5698 17.0606 15.5698 17.4284Z" fill="black"/>
<path d="M16.8889 23.5965V22.2694H15.5662V23.5965H16.8889Z" stroke="black" stroke-miterlimit="10" stroke-linecap="round" stroke-linejoin="round"/>
<path d="M0.39624 1.72254L0.39624 5.71988H3.12931L3.12931 1.72254H0.39624Z" stroke="black" stroke-miterlimit="10" stroke-linecap="round" stroke-linejoin="round"/>
<path d="M2.42265 6.57161V5.72418C2.42265 5.54829 2.28719 5.41238 2.11189 5.41238H1.41867C1.24337 5.41238 1.10791 5.54829 1.10791 5.72418V6.57161C1.10791 6.93937 1.40273 7.23517 1.76926 7.23517C2.12783 7.22717 2.42265 6.93137 2.42265 6.57161Z" fill="black"/>
<path d="M1.10498 0.396457V1.72357H2.42769V0.396457H1.10498Z" stroke="black" stroke-miterlimit="10" stroke-linecap="round" stroke-linejoin="round"/>
</g>
<defs>
<clipPath id="clip0_0_3556">
<rect width="18" height="24" fill="white"/>
</clipPath>
</defs>
</svg>
