<svg width="16" height="30" viewBox="0 0 16 30" fill="none" xmlns="http://www.w3.org/2000/svg">
<path d="M13.8256 24.1228V18.0606C13.8256 16.8542 12.8293 15.869 11.6093 15.869H11.4568C10.2368 15.869 9.2405 16.8542 9.2405 18.0606V26.5959C9.2405 27.8023 8.24419 28.7876 7.02421 28.7876H6.97338C5.7534 28.7876 4.75708 27.8023 4.75708 26.5959V16.1002" stroke="black" stroke-miterlimit="10" stroke-linecap="round" stroke-linejoin="round"/>
<path d="M1.06641 6.05955L1.06641 13.3583H8.44728V6.05955L1.06641 6.05955Z" stroke="black" stroke-miterlimit="10" stroke-linecap="round" stroke-linejoin="round"/>
<path d="M14.7781 26.8957V24.1512H12.8769V26.8957H14.7781Z" stroke="black" stroke-miterlimit="10" stroke-linecap="round" stroke-linejoin="round"/>
<path d="M5.70996 16.105L5.70996 13.3604H3.80883L3.80883 16.105H5.70996Z" stroke="black" stroke-miterlimit="10" stroke-linecap="round" stroke-linejoin="round"/>
<path d="M1.84056 6.06287L7.57446 6.06287V4.58502L1.84056 4.58502V6.06287Z" stroke="black" stroke-miterlimit="10" stroke-linecap="round" stroke-linejoin="round"/>
<path d="M6.323 4.57903V1.03018" stroke="black" stroke-miterlimit="10" stroke-linecap="round" stroke-linejoin="round"/>
<path d="M3.19434 4.5589V1" stroke="black" stroke-miterlimit="10" stroke-linecap="round" stroke-linejoin="round"/>
</svg>
