<svg width="16" height="24" viewBox="0 0 16 24" fill="none" xmlns="http://www.w3.org/2000/svg">
<path d="M2.76741 2.76741C4.15518 1.37964 6.0374 0.6 8 0.6C9.9626 0.6 11.8448 1.37964 13.2326 2.76741C14.6204 4.15518 15.4 6.0374 15.4 8C15.4 8.76429 15.1208 9.86857 14.6231 11.2008C14.1315 12.5165 13.4501 13.995 12.6959 15.4853C11.1886 18.4639 9.41177 21.4491 8.33925 23.2051C8.30343 23.2625 8.25366 23.3098 8.19457 23.3427C8.13507 23.3758 8.0681 23.3932 8 23.3932C7.9319 23.3932 7.86493 23.3758 7.80543 23.3427C7.74636 23.3098 7.6966 23.2625 7.66078 23.2052C6.58826 21.4492 4.81139 18.4639 3.30411 15.4853C2.54992 13.995 1.86846 12.5165 1.3769 11.2008C0.879153 9.86857 0.6 8.76429 0.6 8C0.6 6.0374 1.37964 4.15518 2.76741 2.76741ZM5.72216 11.409C6.3964 11.8595 7.1891 12.1 8 12.1C9.08739 12.1 10.1302 11.668 10.8991 10.8991C11.668 10.1302 12.1 9.08739 12.1 8C12.1 7.1891 11.8595 6.3964 11.409 5.72216C10.9585 5.04792 10.3182 4.52241 9.569 4.21209C8.81982 3.90177 7.99545 3.82058 7.20013 3.97878C6.40481 4.13698 5.67426 4.52747 5.10086 5.10086C4.52747 5.67426 4.13698 6.40481 3.97878 7.20013C3.82058 7.99545 3.90177 8.81982 4.21209 9.569C4.52241 10.3182 5.04792 10.9585 5.72216 11.409Z" stroke="black" stroke-width="1.2"/>
</svg>
