<svg width="24" height="24" viewBox="0 0 24 24" fill="none" xmlns="http://www.w3.org/2000/svg">
<path d="M21.8266 6.87583C21.7201 6.66603 21.5369 6.50523 21.3151 6.42674C21.0933 6.34825 20.8498 6.35806 20.635 6.45416C19.8845 6.78663 19.0349 6.81789 18.262 6.54149C17.4891 6.26508 16.852 5.70215 16.4825 4.96916C16.4283 4.86158 16.3535 4.76573 16.2623 4.68709C16.171 4.60845 16.0652 4.54855 15.9508 4.51083C15.8354 4.47275 15.7136 4.458 15.5924 4.46744C15.4712 4.47688 15.3531 4.51033 15.245 4.56583C14.8077 4.78844 14.324 4.90464 13.8333 4.905C12.9824 4.905 12.1664 4.56698 11.5647 3.9653C10.963 3.36362 10.625 2.54757 10.625 1.69667V1.69667C10.625 1.5119 10.5516 1.3347 10.4209 1.20405C10.2903 1.0734 10.1131 1 9.92832 1H9.79082C7.75243 1.41789 5.87438 2.40537 4.37468 3.84779C2.87498 5.29022 1.81517 7.12842 1.31826 9.149C0.821356 11.1696 0.907748 13.2897 1.56741 15.2631C2.22706 17.2366 3.43293 18.9825 5.04501 20.2981C6.6571 21.6137 8.60927 22.4451 10.6749 22.6958C12.7405 22.9464 14.8349 22.606 16.7149 21.7142C18.5948 20.8223 20.1832 19.4155 21.2957 17.6571C22.4083 15.8987 22.9992 13.8608 23 11.78C23.0035 10.0753 22.6013 8.39431 21.8266 6.87583V6.87583ZM4.59333 14.3742C4.35022 14.3742 4.11706 14.2776 3.94515 14.1057C3.77324 13.9338 3.67666 13.7006 3.67666 13.4575C3.67666 13.2144 3.77324 12.9812 3.94515 12.8093C4.11706 12.6374 4.35022 12.5408 4.59333 12.5408C4.83644 12.5408 5.0696 12.6374 5.24151 12.8093C5.41342 12.9812 5.51 13.2144 5.51 13.4575C5.51 13.7006 5.41342 13.9338 5.24151 14.1057C5.0696 14.2776 4.83644 14.3742 4.59333 14.3742ZM8.94749 6.89416C9.31009 6.89416 9.66455 7.00168 9.96604 7.20313C10.2675 7.40458 10.5025 7.69091 10.6413 8.02591C10.78 8.3609 10.8163 8.72953 10.7456 9.08516C10.6749 9.44079 10.5002 9.76746 10.2439 10.0239C9.98746 10.2802 9.66079 10.4549 9.30516 10.5256C8.94953 10.5963 8.5809 10.56 8.24591 10.4213C7.91091 10.2825 7.62458 10.0475 7.42313 9.74604C7.22168 9.44455 7.11416 9.09009 7.11416 8.72749C7.11416 8.24126 7.30731 7.77495 7.65113 7.43113C7.99495 7.08731 8.46126 6.89416 8.94749 6.89416V6.89416ZM9.24999 18.1966C8.88739 18.1966 8.53294 18.0891 8.23145 17.8877C7.92996 17.6862 7.69497 17.3999 7.55621 17.0649C7.41745 16.7299 7.38115 16.3613 7.45189 16.0057C7.52263 15.65 7.69723 15.3234 7.95363 15.067C8.21003 14.8106 8.53669 14.636 8.89233 14.5652C9.24796 14.4945 9.61658 14.5308 9.95158 14.6695C10.2866 14.8083 10.5729 15.0433 10.7744 15.3448C10.9758 15.6463 11.0833 16.0007 11.0833 16.3633C11.0833 16.8495 10.8902 17.3159 10.5464 17.6597C10.2025 18.0035 9.73622 18.1966 9.24999 18.1966ZM13.5308 11.0925C13.5308 10.9112 13.5846 10.734 13.6853 10.5832C13.786 10.4325 13.9292 10.315 14.0967 10.2456C14.2642 10.1762 14.4485 10.1581 14.6263 10.1934C14.8041 10.2288 14.9675 10.3161 15.0957 10.4443C15.2239 10.5725 15.3112 10.7358 15.3465 10.9137C15.3819 11.0915 15.3638 11.2758 15.2944 11.4433C15.225 11.6108 15.1075 11.7539 14.9568 11.8547C14.806 11.9554 14.6288 12.0092 14.4475 12.0092C14.2044 12.0092 13.9712 11.9126 13.7993 11.7407C13.6274 11.5688 13.5308 11.3356 13.5308 11.0925V11.0925ZM14.75 19.1133C14.5687 19.1133 14.3915 19.0596 14.2407 18.9588C14.09 18.8581 13.9725 18.7149 13.9031 18.5474C13.8337 18.3799 13.8156 18.1956 13.8509 18.0178C13.8863 17.84 13.9736 17.6767 14.1018 17.5485C14.23 17.4203 14.3933 17.333 14.5712 17.2976C14.749 17.2622 14.9333 17.2804 15.1008 17.3498C15.2683 17.4191 15.4114 17.5366 15.5122 17.6874C15.6129 17.8381 15.6667 18.0153 15.6667 18.1966C15.6667 18.4398 15.5701 18.6729 15.3982 18.8448C15.2263 19.0167 14.9931 19.1133 14.75 19.1133ZM17.9583 15.4467C17.6864 15.4467 17.4205 15.366 17.1944 15.2149C16.9683 15.0638 16.7921 14.8491 16.688 14.5978C16.5839 14.3466 16.5567 14.0701 16.6097 13.8034C16.6628 13.5367 16.7937 13.2917 16.986 13.0994C17.1783 12.9071 17.4233 12.7761 17.6901 12.7231C17.9568 12.67 18.2333 12.6972 18.4845 12.8013C18.7358 12.9054 18.9505 13.0816 19.1016 13.3077C19.2527 13.5339 19.3333 13.7997 19.3333 14.0717C19.3333 14.4363 19.1884 14.7861 18.9306 15.0439C18.6727 15.3018 18.323 15.4467 17.9583 15.4467Z" stroke="black" stroke-width="1.2" stroke-miterlimit="10"/>
</svg>
