<svg width="31" height="19" viewBox="0 0 31 19" fill="none" xmlns="http://www.w3.org/2000/svg">
<path d="M11.9349 18.2427C13.1503 18.2427 14.1356 17.2108 14.1356 15.9377C14.1356 14.6647 13.1503 13.6328 11.9349 13.6328C10.7194 13.6328 9.73413 14.6647 9.73413 15.9377C9.73413 17.2108 10.7194 18.2427 11.9349 18.2427Z" stroke="#231F20" stroke-width="1.2" stroke-linecap="round" stroke-linejoin="round"/>
<path d="M25.692 18.2427C26.9074 18.2427 27.8927 17.2108 27.8927 15.9377C27.8927 14.6647 26.9074 13.6328 25.692 13.6328C24.4765 13.6328 23.4912 14.6647 23.4912 15.9377C23.4912 17.2108 24.4765 18.2427 25.692 18.2427Z" stroke="#231F20" stroke-width="1.2" stroke-linecap="round" stroke-linejoin="round"/>
<path d="M21.5969 5.29786H25.291C25.4186 5.29476 25.545 5.3244 25.6592 5.38418C25.7734 5.44397 25.8718 5.53209 25.946 5.64086L28.566 9.61285C28.64 9.72184 28.7384 9.81013 28.8526 9.86994C28.9668 9.92974 29.0933 9.95925 29.221 9.95585C29.3236 9.95585 29.4252 9.97709 29.52 10.0183C29.6148 10.0596 29.7008 10.12 29.7733 10.1962C29.8457 10.2723 29.903 10.3627 29.942 10.4622C29.981 10.5616 30.0008 10.6681 30.0004 10.7756V15.1352C30.0004 15.3517 29.9183 15.5594 29.7721 15.7125C29.6259 15.8656 29.4277 15.9516 29.221 15.9516H27.911" stroke="#231F20" stroke-width="1.2" stroke-linecap="round" stroke-linejoin="round"/>
<path d="M14.1348 15.9377H23.4978" stroke="#231F20" stroke-width="1.2" stroke-linecap="round" stroke-linejoin="round"/>
<path d="M6.19116 11.6128V15.1354C6.19202 15.3517 6.27443 15.5588 6.42041 15.7117C6.5664 15.8646 6.76414 15.9509 6.9706 15.9518H9.73792" stroke="#231F20" stroke-width="1.2" stroke-linecap="round" stroke-linejoin="round"/>
<path d="M5.95068 5.29786V1.81636C5.95068 1.70887 5.97094 1.60243 6.01032 1.50316C6.04969 1.40389 6.10741 1.31375 6.18013 1.2379C6.25286 1.16205 6.33916 1.10199 6.43411 1.06116C6.52905 1.02034 6.63075 0.999556 6.73339 1.00001H20.8156C21.0223 1.00001 21.2206 1.08602 21.3667 1.23911C21.5129 1.39221 21.595 1.59985 21.595 1.81636V15.9379" stroke="#231F20" stroke-width="1.2" stroke-linecap="round" stroke-linejoin="round"/>
<path d="M23.4912 6.97159V9.14623C23.4921 9.36306 23.5749 9.57069 23.7216 9.72368C23.8683 9.87668 24.0669 9.96259 24.2739 9.96259H28.7868" stroke="#231F20" stroke-width="1.2" stroke-linecap="round" stroke-linejoin="round"/>
<path d="M3.89697 11.6128H10.1816" stroke="#231F20" stroke-width="1.2" stroke-linecap="round" stroke-linejoin="round"/>
<path d="M1 8.44531H7.28459" stroke="#231F20" stroke-width="1.2" stroke-linecap="round" stroke-linejoin="round"/>
<path d="M3.89697 5.29785H10.1816" stroke="#231F20" stroke-width="1.2" stroke-linecap="round" stroke-linejoin="round"/>
</svg>
