<svg width="22" height="27" viewBox="0 0 22 27" fill="none" xmlns="http://www.w3.org/2000/svg">
<path d="M19.3801 1.5H2.4901C2.09401 1.50264 1.71504 1.66184 1.4359 1.94286C1.15675 2.22388 1.00009 2.6039 1.0001 3V9.26C0.989082 12.5812 1.88357 15.8425 3.58738 18.6934C5.29119 21.5442 7.73987 23.8767 10.6701 25.44C10.7442 25.4787 10.8265 25.4992 10.9101 25.5C10.9907 25.5005 11.07 25.4798 11.1401 25.44C14.0729 23.8789 16.5242 21.5472 18.23 18.696C19.9357 15.8449 20.8313 12.5824 20.8201 9.26V3C20.8204 2.61236 20.6706 2.23964 20.4022 1.96C20.1337 1.68036 19.7674 1.51551 19.3801 1.5V1.5ZM16.8101 9.5L9.7101 16.2C9.52317 16.3832 9.27186 16.4859 9.0101 16.4859C8.74835 16.4859 8.49703 16.3832 8.3101 16.2L5.9401 13.81C5.73854 13.619 5.62109 13.3558 5.61358 13.0783C5.60608 12.8007 5.70915 12.5316 5.9001 12.33C6.09106 12.1284 6.35426 12.011 6.63182 12.0035C6.90937 11.996 7.17854 12.099 7.3801 12.29V12.29L9.0601 13.99L15.4501 7.99C15.5492 7.9007 15.665 7.83181 15.7908 7.78725C15.9166 7.74269 16.0499 7.72334 16.1831 7.7303C16.3164 7.73727 16.447 7.77041 16.5674 7.82784C16.6879 7.88526 16.7958 7.96585 16.8851 8.065C16.9744 8.16415 17.0433 8.27991 17.0879 8.40569C17.1324 8.53146 17.1518 8.66478 17.1448 8.79803C17.1378 8.93129 17.1047 9.06186 17.0473 9.1823C16.9898 9.30275 16.9092 9.4107 16.8101 9.5V9.5Z" stroke="black" stroke-width="1.2" stroke-miterlimit="10"/>
</svg>
