<svg width="30" height="30" viewBox="0 0 30 30" fill="none" xmlns="http://www.w3.org/2000/svg">
<circle cx="15" cy="15" r="15" fill="#6E0EC0"/>
<circle cx="15" cy="15" r="14.5" stroke="#0E4F6A" stroke-opacity="0.3"/>
<path d="M20.967 12.822C20.9365 12.1313 20.8248 11.6564 20.6647 11.2449C20.4996 10.8082 20.2456 10.4171 19.9128 10.092C19.5877 9.76187 19.194 9.50533 18.7622 9.34284C18.3482 9.18283 17.8757 9.07113 17.1849 9.04067C16.4888 9.00764 16.2679 9 14.5025 9C12.7372 9 12.5162 9.00764 11.8228 9.03809C11.1319 9.06855 10.6569 9.18035 10.2455 9.34026C9.8085 9.50533 9.41737 9.75929 9.09222 10.092C8.76202 10.4171 8.50553 10.8107 8.34291 11.2425C8.18286 11.6564 8.07114 12.1287 8.04068 12.8195C8.00764 13.5154 8 13.7363 8 15.5013C8 17.2663 8.00764 17.4872 8.0381 18.1805C8.06856 18.8713 8.18038 19.3462 8.34043 19.7576C8.50553 20.1944 8.76202 20.5855 9.09222 20.9106C9.41737 21.2407 9.81108 21.4972 10.2429 21.6597C10.6569 21.8198 11.1293 21.9315 11.8203 21.9619C12.5137 21.9925 12.7347 22 14.5 22C16.2654 22 16.4863 21.9925 17.1798 21.9619C17.8707 21.9315 18.3456 21.8198 18.7571 21.6597C19.631 21.322 20.3218 20.6312 20.6597 19.7576C20.8196 19.3437 20.9314 18.8713 20.9619 18.1805C20.9924 17.4872 21 17.2663 21 15.5013C21 13.7363 20.9974 13.5154 20.967 12.822ZM19.7961 18.1297C19.7681 18.7646 19.6614 19.1075 19.5725 19.336C19.354 19.9024 18.9045 20.3519 18.338 20.5703C18.1094 20.6592 17.764 20.7658 17.1315 20.7937C16.4457 20.8243 16.24 20.8318 14.5051 20.8318C12.7702 20.8318 12.562 20.8243 11.8786 20.7937C11.2436 20.7658 10.9007 20.6592 10.6721 20.5703C10.3902 20.4661 10.1336 20.3011 9.92538 20.0852C9.70947 19.8744 9.54437 19.6204 9.44019 19.3386C9.35129 19.1101 9.24462 18.7646 9.21674 18.1323C9.18618 17.4466 9.17864 17.2409 9.17864 15.5063C9.17864 13.7718 9.18618 13.5636 9.21674 12.8805C9.24462 12.2456 9.35129 11.9027 9.44019 11.6742C9.54437 11.3923 9.70947 11.1358 9.92796 10.9275C10.1387 10.7116 10.3927 10.5466 10.6747 10.4425C10.9033 10.3536 11.2488 10.247 11.8812 10.219C12.567 10.1885 12.7728 10.1809 14.5076 10.1809C16.245 10.1809 16.4507 10.1885 17.1341 10.219C17.7691 10.247 18.112 10.3536 18.3406 10.4425C18.6225 10.5466 18.8791 10.7116 19.0873 10.9275C19.3032 11.1383 19.4683 11.3923 19.5725 11.6742C19.6614 11.9027 19.7681 12.2481 19.7961 12.8805C19.8265 13.5662 19.8342 13.7718 19.8342 15.5063C19.8342 17.2409 19.8265 17.4441 19.7961 18.1297Z" fill="white"/>
<path d="M14.5 12C12.5677 12 11 13.5676 11 15.5C11 17.4324 12.5677 19 14.5 19C16.4324 19 18 17.4324 18 15.5C18 13.5676 16.4324 12 14.5 12ZM14.5 17.7704C13.2465 17.7704 12.2296 16.7537 12.2296 15.5C12.2296 14.2463 13.2465 13.2296 14.5 13.2296C15.7537 13.2296 16.7704 14.2463 16.7704 15.5C16.7704 16.7537 15.7537 17.7704 14.5 17.7704Z" fill="white"/>
<path d="M19 12C19 12.5522 18.5523 13 17.9999 13C17.4477 13 17 12.5522 17 12C17 11.4476 17.4477 11 17.9999 11C18.5523 11 19 11.4476 19 12Z" fill="white"/>
</svg>
