<svg width="31" height="31" viewBox="0 0 31 31" fill="none" xmlns="http://www.w3.org/2000/svg">
<circle cx="15.6929" cy="15.3892" r="14.9586" fill="#6E0EC0"/>
<path d="M21.5871 20.7867L21.59 20.7863V16.6122C21.59 14.5703 21.1312 12.9973 18.6396 12.9973C17.4418 12.9973 16.638 13.6271 16.3098 14.2241H16.2752V13.1879H13.9127V20.7863H16.3727V17.0239C16.3727 16.0332 16.5687 15.0753 17.8491 15.0753C19.1108 15.0753 19.1296 16.2058 19.1296 17.0874V20.7867H21.5871Z" fill="white"/>
<path d="M9.9082 13.1882H12.3711V20.7865H9.9082V13.1882Z" fill="white"/>
<path d="M11.1359 9.40576C10.3485 9.40576 9.70947 10.018 9.70947 10.7724C9.70947 11.5269 10.3485 12.1519 11.1359 12.1519C11.9234 12.1519 12.5624 11.5269 12.5624 10.7724C12.5619 10.018 11.9229 9.40576 11.1359 9.40576V9.40576Z" fill="white"/>
</svg>
