<svg width="19" height="24" viewBox="0 0 19 24" fill="none" xmlns="http://www.w3.org/2000/svg">
<path d="M1 9.97559H18.4195V15.9873C18.4186 17.9438 17.6205 19.8199 16.2008 21.203C14.781 22.5861 12.8558 23.3631 10.8484 23.3631H8.57115C6.56375 23.3631 4.63852 22.5861 3.21876 21.203C1.79899 19.8199 1.00092 17.9438 1 15.9873V9.97559Z" stroke="#333333" stroke-miterlimit="10"/>
<path d="M3.43414 8.18377V7.11279C3.43414 5.49158 4.09494 3.93677 5.27114 2.7904C6.44734 1.64403 8.04261 1 9.70601 1C11.3694 1 12.9647 1.64403 14.1409 2.7904C15.3171 3.93677 15.9778 5.49158 15.9778 7.11279V8.18377" stroke="#333333" stroke-miterlimit="10"/>
</svg>
