<svg width="23" height="18" viewBox="0 0 23 18" fill="none" xmlns="http://www.w3.org/2000/svg">
<path d="M1 13.5655V10.8791C1 8.82544 2.66437 7.17081 4.70833 7.17081H18.2764C20.3301 7.17081 21.9847 8.83518 21.9847 10.8791V13.5655C21.9847 15.6192 20.3203 17.2738 18.2764 17.2738H4.70833C2.66437 17.2836 1 15.6192 1 13.5655Z" stroke="black" stroke-miterlimit="10" stroke-linecap="round" stroke-linejoin="round"/>
<path d="M4.35722 7.17081V17.2836" stroke="black" stroke-miterlimit="10" stroke-linecap="round" stroke-linejoin="round"/>
<path d="M18.2752 17.2836V7.27792" stroke="black" stroke-miterlimit="10" stroke-linecap="round" stroke-linejoin="round"/>
<path d="M13.1466 11.0544H9.47721V13.4974H13.1466V11.0544Z" fill="black" stroke="black" stroke-miterlimit="10" stroke-linecap="round" stroke-linejoin="round"/>
<path d="M6.92674 5.50645C6.92674 3.01476 8.94151 1 11.4332 1C13.9249 1 15.9397 3.01476 15.9397 5.50645" stroke="black" stroke-miterlimit="10" stroke-linecap="round" stroke-linejoin="round"/>
<path d="M8.43543 5.50651C8.43543 3.85187 9.7786 2.49896 11.443 2.49896C13.1073 2.49896 14.4505 3.84214 14.4505 5.50651" stroke="black" stroke-miterlimit="10" stroke-linecap="round" stroke-linejoin="round"/>
<path d="M10.033 5.50649C10.033 4.72784 10.6657 4.10492 11.4346 4.10492C12.2133 4.10492 12.8362 4.73758 12.8362 5.50649" stroke="black" stroke-miterlimit="10" stroke-linecap="round" stroke-linejoin="round"/>
</svg>
