<svg width="80" height="49" viewBox="0 0 80 49" fill="none" xmlns="http://www.w3.org/2000/svg">
<path d="M24.7935 19.5851L33.581 7.2965C34.3074 6.27629 35.2676 5.44496 36.3814 4.87219C37.4951 4.29942 38.7298 4.00185 39.9822 4.00441H67.6599" stroke="#231F20" stroke-width="1.5" stroke-linecap="round" stroke-linejoin="round"/>
<path d="M45.3732 19.585H4.89299C2.74295 19.585 1 21.3279 1 23.478V44.0838C1 46.2339 2.74295 47.9768 4.89299 47.9768H45.3732C47.5232 47.9768 49.2661 46.2339 49.2661 44.0838V23.478C49.2661 21.3279 47.5232 19.585 45.3732 19.585Z" stroke="#231F20" stroke-width="1.5" stroke-linecap="round" stroke-linejoin="round"/>
<path d="M78.5892 0.982422H67.6592V29.7488H78.5892V0.982422Z" stroke="#231F20" stroke-width="1.5" stroke-linecap="round" stroke-linejoin="round"/>
<path d="M14.9434 24.1836H5.85107V31.177H14.9434V24.1836Z" stroke="#231F20" stroke-width="1.5" stroke-linecap="round" stroke-linejoin="round"/>
<path d="M49.2661 31.4296H55.9286C56.9007 31.429 57.855 31.1697 58.6937 30.6784C59.5324 30.1871 60.2253 29.4815 60.7012 28.634C61.1793 27.7864 61.8739 27.081 62.714 26.5898C63.554 26.0986 64.5094 25.8393 65.4826 25.8384H67.6598" stroke="#231F20" stroke-width="1.5" stroke-linecap="round" stroke-linejoin="round"/>
<path d="M5.85107 43.814H14.9434" stroke="#231F20" stroke-width="1.5" stroke-linecap="round" stroke-linejoin="round"/>
<path d="M41.4623 17.0596L30.5323 28.7734C30.2115 29.1217 29.9624 29.5297 29.7993 29.9742C29.6362 30.4187 29.5622 30.891 29.5816 31.3641C29.6011 31.8372 29.7135 32.3019 29.9124 32.7315C30.1114 33.1612 30.3931 33.5475 30.7414 33.8683C31.4288 34.4992 32.3345 34.8382 33.2673 34.8138C34.2001 34.7895 35.0868 34.4036 35.7404 33.7376L43.2738 26.0823C43.5716 25.7675 43.9377 25.5252 44.3439 25.3742C44.7501 25.2232 45.1855 25.1675 45.6166 25.2114C48.6387 25.5336 55.9021 25.6381 58.4626 19.5417" fill="white"/>
<path d="M41.4623 17.0596L30.5323 28.7734C30.2115 29.1217 29.9624 29.5297 29.7993 29.9742C29.6362 30.4187 29.5622 30.891 29.5816 31.3641C29.6011 31.8372 29.7135 32.3019 29.9124 32.7315C30.1114 33.1612 30.3931 33.5475 30.7414 33.8683V33.8683C31.4288 34.4992 32.3345 34.8382 33.2673 34.8138C34.2001 34.7895 35.0868 34.4036 35.7404 33.7376L43.2738 26.0823C43.5716 25.7675 43.9377 25.5252 44.3439 25.3742C44.7501 25.2232 45.1855 25.1675 45.6166 25.2114C48.6387 25.5336 55.9021 25.6381 58.4626 19.5417" stroke="#231F20" stroke-width="1.5" stroke-linecap="round" stroke-linejoin="round"/>
<path d="M5.79004 40.6089H7.53187" stroke="#231F20" stroke-width="1.5" stroke-linecap="round" stroke-linejoin="round"/>
<path d="M11.0156 40.6089H14.7606" stroke="#231F20" stroke-width="1.5" stroke-linecap="round" stroke-linejoin="round"/>
<path d="M21.4663 40.6089H23.2081" stroke="#231F20" stroke-width="1.5" stroke-linecap="round" stroke-linejoin="round"/>
<path d="M26.6919 40.6089H30.4368" stroke="#231F20" stroke-width="1.5" stroke-linecap="round" stroke-linejoin="round"/>
<path d="M36.272 40.6089H38.0138" stroke="#231F20" stroke-width="1.5" stroke-linecap="round" stroke-linejoin="round"/>
<path d="M41.4976 40.6089H45.2425" stroke="#231F20" stroke-width="1.5" stroke-linecap="round" stroke-linejoin="round"/>
</svg>
