<svg id="Layer_1" data-name="Layer 1" xmlns="http://www.w3.org/2000/svg" xmlns:xlink="http://www.w3.org/1999/xlink" viewBox="0 0 699.13 225.37"><defs><style>.cls-1{fill:none;}.cls-2{clip-path:url(#clip-path);}.cls-3{fill:#700ebe;}.cls-4{fill:#710ebd;}.cls-5{fill:#720ebc;}.cls-6{fill:#730ebb;}.cls-7{fill:#740eba;}.cls-8{fill:#740eb9;}.cls-9{fill:#750eb8;}.cls-10{fill:#760eb7;}.cls-11{fill:#770eb6;}.cls-12{fill:#780eb5;}.cls-13{fill:#790eb4;}.cls-14{fill:#7a0eb3;}.cls-15{fill:#7b0eb2;}.cls-16{fill:#7c0eb1;}.cls-17{fill:#7d0eb0;}.cls-18{fill:#7e0eaf;}.cls-19{fill:#7f0eae;}.cls-20{fill:#800ead;}.cls-21{fill:#800eac;}.cls-22{fill:#810eab;}.cls-23{fill:#6e0ec0;}.cls-24{fill:#171819;}</style><clipPath id="clip-path" transform="translate(-8.77 -8.31)"><path class="cls-1" d="M112.8,119.07l.35-.34a18.33,18.33,0,0,1,13-5.37h18.32A18.36,18.36,0,0,0,162.8,95V82.26a18.35,18.35,0,0,0-18.36-18.35H126.25a18.35,18.35,0,0,1-13-5.37L113,58.3a18.35,18.35,0,0,1-5.37-13V26.66A18.35,18.35,0,0,0,89.32,8.31H27.12A18.35,18.35,0,0,0,8.77,26.66V39.4A18.35,18.35,0,0,0,27.12,57.75H94.84a18.36,18.36,0,0,1,13,5.38l.16.16a18.35,18.35,0,0,1,5.37,13v24.61a18.33,18.33,0,0,1-5.37,13h0a18.34,18.34,0,0,1-13,5.38H76.34A18.35,18.35,0,0,0,58,137.57v12.75a18.35,18.35,0,0,0,18.35,18.35H95a18.35,18.35,0,0,1,13,5.37h0a18.36,18.36,0,0,1,5.38,13v18.66A18.34,18.34,0,0,0,131.65,224h12.74a18.34,18.34,0,0,0,18.35-18.35V192.94a18.34,18.34,0,0,0-18.35-18.35H126.12a18.34,18.34,0,0,1-13-5.38l-.34-.34a18.32,18.32,0,0,1-5.38-13V132.05A18.35,18.35,0,0,1,112.8,119.07Z"/></clipPath></defs><title>Reach</title><g class="cls-2"><polygon class="cls-3" points="14.52 0 0 19.77 0 0 14.52 0"/><polygon class="cls-4" points="30.95 0 0 42.15 0 19.77 14.52 0 30.95 0"/><polygon class="cls-5" points="47.38 0 0 64.53 0 42.15 30.95 0 47.38 0"/><polygon class="cls-6" points="63.81 0 0 86.91 0 64.53 47.38 0 63.81 0"/><polygon class="cls-7" points="80.24 0 0 109.29 0 86.91 63.81 0 80.24 0"/><polygon class="cls-8" points="96.68 0 0 131.67 0 109.29 80.24 0 96.68 0"/><polygon class="cls-9" points="99.46 0 108.33 6.51 6.99 144.53 0 139.4 0 131.67 96.68 0 99.46 0"/><rect class="cls-10" x="-13.84" y="81.13" width="171.22" height="13.25" transform="matrix(0.59, -0.81, 0.81, 0.59, -50.21, 85.36)"/><rect class="cls-11" x="-3.16" y="88.96" width="171.22" height="13.25" transform="translate(-52.17 97.17) rotate(-53.71)"/><rect class="cls-12" x="7.51" y="96.8" width="171.22" height="13.25" transform="translate(-54.13 108.97) rotate(-53.71)"/><rect class="cls-13" x="18.19" y="104.64" width="171.22" height="13.25" transform="matrix(0.59, -0.81, 0.81, 0.59, -56.09, 120.78)"/><polygon class="cls-14" points="151.03 37.87 154.02 40.06 154.02 56.18 60.38 183.72 49.7 175.88 151.03 37.87"/><polygon class="cls-15" points="154.02 78.56 71.05 191.56 60.38 183.72 154.02 56.18 154.02 78.56"/><polygon class="cls-16" points="154.02 100.94 81.73 199.4 71.05 191.56 154.02 78.56 154.02 100.94"/><polygon class="cls-17" points="154.02 123.32 92.41 207.24 81.73 199.4 154.02 100.94 154.02 123.32"/><polygon class="cls-18" points="154.02 145.7 103.08 215.08 92.41 207.24 154.02 123.32 154.02 145.7"/><polygon class="cls-19" points="154.02 168.08 119.04 215.72 103.96 215.72 103.08 215.08 154.02 145.7 154.02 168.08"/><polygon class="cls-20" points="154.02 190.46 135.47 215.72 119.04 215.72 154.02 168.08 154.02 190.46"/><polygon class="cls-21" points="154.02 212.84 151.91 215.72 135.47 215.72 154.02 190.46 154.02 212.84"/><polygon class="cls-22" points="151.91 215.72 154.02 212.84 154.02 215.72 151.91 215.72"/></g><path class="cls-23" d="M225.05,150.3c0,11.69-17.87,12.1-17.87.27V74.26a8,8,0,0,1,8.06-8.19H251c34.12,0,41.11,45.68,12.63,57.1l17.87,21.76c7,10.34-7,20.29-15.05,10.08l-20.29-29H225.05Zm0-39.76H251c17.46,0,18.54-28.21,0-28.21H225.05Z" transform="translate(-8.77 -8.31)"/><path class="cls-23" d="M319.64,159a8.2,8.2,0,0,1-8.32-8.33V74.4a8.11,8.11,0,0,1,8.32-8.33h48.24c12.36,0,12.09,17.46,0,17.46h-38.7v20.16H363c12,0,12,17.6,0,17.6H329.18v20.15h41c12.22,0,13.17,17.6,0,17.6Z" transform="translate(-8.77 -8.31)"/><path class="cls-23" d="M405.64,159c-4.3-2.42-7-7.26-4.3-12.9L439.9,70.77c3.63-7.12,13.3-7.39,16.66,0l37.88,75.37c5.51,10.48-10.74,18.81-15.58,8.33L473,142.65H423.37l-5.77,11.82C415.45,159,410.48,160,405.64,159Zm57.77-34.13L448.23,91.73,431.7,124.91Z" transform="translate(-8.77 -8.31)"/><path class="cls-23" d="M516.76,111.88c0-25.93,16.26-48.23,47.16-48.23,11.69,0,21,3.49,30.76,12a8.71,8.71,0,1,1-11.95,12.63c-5.51-5.78-11.15-7.39-18.81-7.39-20.69,0-30.63,14.64-30.63,31,0,16.66,9.8,32,30.63,32,7.66,0,14.78-3.1,21-8.6a9,9,0,0,1,12.36,1.61c2.15,3,3.22,7.93-1.48,12.63-9.41,8.73-20.69,10.48-31.84,10.48C531.41,160,516.76,137.81,516.76,111.88Z" transform="translate(-8.77 -8.31)"/><path class="cls-23" d="M628.29,150.71V74.4c0-4.84,3.49-8.33,9.54-8.33A8,8,0,0,1,646,74.4v29.29h43.8V74.4c0-4.84,4.3-8.33,9.13-8.33a8.12,8.12,0,0,1,8.33,8.33v76.31A8.2,8.2,0,0,1,699,159c-4.83,0-9.13-3.63-9.13-8.33V121.29H646v29.42a8.09,8.09,0,0,1-8.19,8.33C631.78,159,628.29,155.41,628.29,150.71Z" transform="translate(-8.77 -8.31)"/><path class="cls-24" d="M208.59,205.42a1.4,1.4,0,0,1-1-.39,1.25,1.25,0,0,1-.41-.95,1.32,1.32,0,0,1,.41-1,1.4,1.4,0,0,1,1-.38h10.32a1.4,1.4,0,0,1,1,.38,1.31,1.31,0,0,1,.4,1,1.24,1.24,0,0,1-.4.95,1.41,1.41,0,0,1-1,.39ZM218.67,224a7.2,7.2,0,0,1-3.82-1,7.3,7.3,0,0,1-2.66-2.77,8.31,8.31,0,0,1-1-4v-19.8a1.55,1.55,0,0,1,.43-1.13,1.45,1.45,0,0,1,1.11-.45,1.51,1.51,0,0,1,1.13.45,1.52,1.52,0,0,1,.45,1.13v19.8a4.78,4.78,0,0,0,1.21,3.38,4,4,0,0,0,3.12,1.32h1.09a1.38,1.38,0,0,1,1.06.44,1.64,1.64,0,0,1,.4,1.14,1.4,1.4,0,0,1-.48,1.11,1.81,1.81,0,0,1-1.22.42Z" transform="translate(-8.77 -8.31)"/><path class="cls-24" d="M236,224.25a10.62,10.62,0,0,1-9.49-5.51,11.5,11.5,0,0,1-1.44-5.75,11.29,11.29,0,0,1,1.48-5.79,10.9,10.9,0,0,1,4-4,11.27,11.27,0,0,1,5.74-1.47,11.16,11.16,0,0,1,5.73,1.47,10.92,10.92,0,0,1,4,4,11.62,11.62,0,0,1,1.52,5.79l-1.26,1a10.29,10.29,0,0,1-1.35,5.25,10,10,0,0,1-3.69,3.68A10.23,10.23,0,0,1,236,224.25Zm.32-2.84a8,8,0,0,0,4.19-1.09,7.92,7.92,0,0,0,2.92-3,9.26,9.26,0,0,0,0-8.64,8.14,8.14,0,0,0-2.92-3,7.93,7.93,0,0,0-4.19-1.11,8,8,0,0,0-4.17,1.11,8.22,8.22,0,0,0-2.95,3,9.11,9.11,0,0,0,0,8.64,8,8,0,0,0,2.95,3A8.11,8.11,0,0,0,236.36,221.41ZM246,224a1.56,1.56,0,0,1-1.13-.42,1.45,1.45,0,0,1-.45-1.11v-6.93l.77-3.2,2.39.61v9.52a1.45,1.45,0,0,1-.45,1.11A1.56,1.56,0,0,1,246,224Z" transform="translate(-8.77 -8.31)"/><path class="cls-24" d="M255.23,224a1.5,1.5,0,0,1-1.11-.42,1.47,1.47,0,0,1-.43-1.11V194a1.47,1.47,0,0,1,.43-1.11,1.65,1.65,0,0,1,2.22,0,1.47,1.47,0,0,1,.43,1.11v28.55a1.47,1.47,0,0,1-.43,1.11A1.5,1.5,0,0,1,255.23,224Zm1-7.41-1.9-2.06,13.85-12.51a1.4,1.4,0,0,1,1-.43,1.43,1.43,0,0,1,1,.51,1.38,1.38,0,0,1,.42,1,1.26,1.26,0,0,1-.5,1Zm14,7.21a1.34,1.34,0,0,1-2.07-.2l-9-11.1,2.18-1.94,9.11,11.22a1.45,1.45,0,0,1,.37,1A1.47,1.47,0,0,1,270.21,223.84Z" transform="translate(-8.77 -8.31)"/><path class="cls-24" d="M284.87,224.25a11.51,11.51,0,0,1-5.81-1.44,10.35,10.35,0,0,1-4-4,11.64,11.64,0,0,1-1.44-5.83,12.15,12.15,0,0,1,1.36-5.85,10.2,10.2,0,0,1,3.74-4,10.4,10.4,0,0,1,5.51-1.45,10.07,10.07,0,0,1,5.36,1.39,9.42,9.42,0,0,1,3.55,3.87,12.31,12.31,0,0,1,1.25,5.63,1.36,1.36,0,0,1-.4,1A1.5,1.5,0,0,1,293,214h-17.2v-2.59h17.53l-1.74,1.26a9.38,9.38,0,0,0-.85-4.21,7,7,0,0,0-2.53-2.92,7.12,7.12,0,0,0-3.91-1,7.44,7.44,0,0,0-4.05,1.09,7.3,7.3,0,0,0-2.69,3,9.67,9.67,0,0,0-.95,4.39,8.68,8.68,0,0,0,1.07,4.37,7.89,7.89,0,0,0,2.93,3,8.36,8.36,0,0,0,4.3,1.09,9.16,9.16,0,0,0,2.93-.5,7.14,7.14,0,0,0,2.37-1.28,1.64,1.64,0,0,1,1-.38,1.41,1.41,0,0,1,1,.3,1.5,1.5,0,0,1,.55,1,1.19,1.19,0,0,1-.47,1,11.08,11.08,0,0,1-3.4,1.88A11.53,11.53,0,0,1,284.87,224.25Z" transform="translate(-8.77 -8.31)"/><path class="cls-24" d="M321.42,224.25a11,11,0,0,1-5.68-1.48,10.78,10.78,0,0,1-3.93-4,11.5,11.5,0,0,1-1.44-5.75,12,12,0,0,1,1.38-5.79,10.58,10.58,0,0,1,3.76-4A10.32,10.32,0,0,1,321,201.7a10.58,10.58,0,0,1,4.55,1,10.28,10.28,0,0,1,3.67,2.91,1.14,1.14,0,0,1,.32,1,1.6,1.6,0,0,1-.69.95,1.23,1.23,0,0,1-1,.22,1.6,1.6,0,0,1-.95-.59,7.55,7.55,0,0,0-5.91-2.67,7.17,7.17,0,0,0-6.66,4.09,9.69,9.69,0,0,0-.95,4.37,9.13,9.13,0,0,0,1,4.33,7.64,7.64,0,0,0,2.83,3,8,8,0,0,0,4.17,1.09,9.49,9.49,0,0,0,2.9-.42,6.56,6.56,0,0,0,2.33-1.32,1.72,1.72,0,0,1,1-.44,1.33,1.33,0,0,1,1,.32,1.56,1.56,0,0,1,.55,1,1.09,1.09,0,0,1-.39,1A10.47,10.47,0,0,1,321.42,224.25Z" transform="translate(-8.77 -8.31)"/><path class="cls-24" d="M345.43,224.25a10.65,10.65,0,0,1-9.49-5.51A11.5,11.5,0,0,1,334.5,213,11.29,11.29,0,0,1,336,207.2a11,11,0,0,1,4-4,11.94,11.94,0,0,1,11.48,0,11,11,0,0,1,4,4A11.51,11.51,0,0,1,357,213l-1.25,1a10.2,10.2,0,0,1-1.36,5.25,10,10,0,0,1-3.68,3.68A10.29,10.29,0,0,1,345.43,224.25Zm.33-2.84a8.06,8.06,0,0,0,4.19-1.09,7.83,7.83,0,0,0,2.91-3,9.18,9.18,0,0,0,0-8.64,8.24,8.24,0,0,0-11.27-3,8.25,8.25,0,0,0-3,3,9.11,9.11,0,0,0,0,8.64,8,8,0,0,0,7.13,4.11Zm9.67,2.63a1.58,1.58,0,0,1-1.13-.42,1.45,1.45,0,0,1-.45-1.11v-6.93l.77-3.2L357,213v9.52a1.48,1.48,0,0,1-.44,1.11A1.61,1.61,0,0,1,355.43,224Z" transform="translate(-8.77 -8.31)"/><path class="cls-24" d="M364.62,224a1.41,1.41,0,0,1-1.54-1.53V203.44a1.54,1.54,0,1,1,3.08,0v19.07a1.39,1.39,0,0,1-1.54,1.53Zm-.24-13.64a9.46,9.46,0,0,1,1.32-4.5,8.82,8.82,0,0,1,3.11-3.11,8.25,8.25,0,0,1,4.28-1.13,6.34,6.34,0,0,1,2.87.52,1.28,1.28,0,0,1,.77,1.54,1.2,1.2,0,0,1-.55.81,1.69,1.69,0,0,1-.93.16l-1.23-.08a9,9,0,0,0-4,.47,6,6,0,0,0-2.8,2,5.37,5.37,0,0,0-1,3.28Z" transform="translate(-8.77 -8.31)"/><path class="cls-24" d="M390.05,224.25a11.54,11.54,0,0,1-5.81-1.44,10.35,10.35,0,0,1-4-4,11.64,11.64,0,0,1-1.43-5.83,12.26,12.26,0,0,1,1.35-5.85,10.15,10.15,0,0,1,3.75-4,10.34,10.34,0,0,1,5.5-1.45,10.13,10.13,0,0,1,5.37,1.39,9.47,9.47,0,0,1,3.54,3.87,12.31,12.31,0,0,1,1.25,5.63,1.36,1.36,0,0,1-.4,1,1.49,1.49,0,0,1-1.05.38H380.94v-2.59h17.53l-1.74,1.26a9.25,9.25,0,0,0-.85-4.21,6.88,6.88,0,0,0-2.53-2.92,7.1,7.1,0,0,0-3.91-1,7.44,7.44,0,0,0-4.05,1.09,7.3,7.3,0,0,0-2.69,3,9.81,9.81,0,0,0-.95,4.39,8.79,8.79,0,0,0,1.07,4.37,8,8,0,0,0,2.94,3,8.29,8.29,0,0,0,4.29,1.09A9.26,9.26,0,0,0,393,221a7.19,7.19,0,0,0,2.36-1.28,1.67,1.67,0,0,1,1-.38,1.42,1.42,0,0,1,1,.3,1.48,1.48,0,0,1,.54,1,1.18,1.18,0,0,1-.46,1,11.2,11.2,0,0,1-3.4,1.88A11.63,11.63,0,0,1,390.05,224.25Z" transform="translate(-8.77 -8.31)"/><path class="cls-24" d="M426.81,224.25a11.48,11.48,0,0,1-5.79-1.46,10.65,10.65,0,0,1-4-4,12.36,12.36,0,0,1,0-11.62,10.65,10.65,0,0,1,4-4,12.25,12.25,0,0,1,11.56,0,10.6,10.6,0,0,1,4,4,11.88,11.88,0,0,1,1.5,5.83,11.39,11.39,0,0,1-1.48,5.79,10.79,10.79,0,0,1-4,4A11.38,11.38,0,0,1,426.81,224.25Zm0-2.84a8.13,8.13,0,0,0,4.21-1.09,7.77,7.77,0,0,0,2.91-3A8.71,8.71,0,0,0,435,213a8.81,8.81,0,0,0-1.06-4.35,7.75,7.75,0,0,0-2.91-3,8.68,8.68,0,0,0-8.42,0,7.87,7.87,0,0,0-2.93,3,8.72,8.72,0,0,0-1.08,4.35,8.62,8.62,0,0,0,1.08,4.33,7.89,7.89,0,0,0,2.93,3A8.13,8.13,0,0,0,426.81,221.41Z" transform="translate(-8.77 -8.31)"/><path class="cls-24" d="M442.8,205.42a1.39,1.39,0,0,1-1-.39,1.27,1.27,0,0,1-.39-.95,1.34,1.34,0,0,1,.39-1,1.38,1.38,0,0,1,1-.38h10.57a1.38,1.38,0,0,1,1,.38,1.34,1.34,0,0,1,.39,1,1.27,1.27,0,0,1-.39.95,1.39,1.39,0,0,1-1,.39ZM446.89,224a1.47,1.47,0,0,1-1.05-.42,1.51,1.51,0,0,1-.45-1.15V201.94a12.09,12.09,0,0,1,1-5,7.47,7.47,0,0,1,2.88-3.34,8.57,8.57,0,0,1,4.66-1.2,1.64,1.64,0,0,1,1.13.41,1.33,1.33,0,0,1,.44,1,1.32,1.32,0,0,1-.44,1,1.64,1.64,0,0,1-1.13.41,5.2,5.2,0,0,0-3,.83,4.91,4.91,0,0,0-1.78,2.3,9,9,0,0,0-.59,3.39v20.69a1.56,1.56,0,0,1-.42,1.15A1.66,1.66,0,0,1,446.89,224Z" transform="translate(-8.77 -8.31)"/><path class="cls-24" d="M479.12,223.36a1.53,1.53,0,0,1-1.14.1,1.58,1.58,0,0,1-.85-.79l-9-18.71a1.37,1.37,0,0,1-.08-1.13,1.47,1.47,0,0,1,.8-.81,1.49,1.49,0,0,1,1.14-.1,1.39,1.39,0,0,1,.81.79l8.87,18.7a1.66,1.66,0,0,1,.2,1.14A1.21,1.21,0,0,1,479.12,223.36Zm-4.5,10.32a2.15,2.15,0,0,1-.72-.16,1.3,1.3,0,0,1-.77-2l13.07-28.82a1.33,1.33,0,0,1,1.95-.73,1.26,1.26,0,0,1,.77,1.9L475.8,232.75A1.28,1.28,0,0,1,474.62,233.68Z" transform="translate(-8.77 -8.31)"/><path class="cls-24" d="M502.28,224.25a11.48,11.48,0,0,1-5.79-1.46,10.58,10.58,0,0,1-4-4,12.29,12.29,0,0,1,0-11.62,10.58,10.58,0,0,1,4-4,12.25,12.25,0,0,1,11.56,0,10.64,10.64,0,0,1,4,4,11.67,11.67,0,0,1,1.5,5.83,11.29,11.29,0,0,1-1.48,5.79,10.77,10.77,0,0,1-4,4A11.4,11.4,0,0,1,502.28,224.25Zm0-2.84a8.18,8.18,0,0,0,4.21-1.09,7.77,7.77,0,0,0,2.91-3,8.82,8.82,0,0,0,1.06-4.33,8.92,8.92,0,0,0-1.06-4.35,7.75,7.75,0,0,0-2.91-3,8.68,8.68,0,0,0-8.42,0,7.9,7.9,0,0,0-2.94,3,8.82,8.82,0,0,0-1.07,4.35,8.71,8.71,0,0,0,1.07,4.33,7.92,7.92,0,0,0,2.94,3A8.13,8.13,0,0,0,502.28,221.41Z" transform="translate(-8.77 -8.31)"/><path class="cls-24" d="M529.24,224.29a10.8,10.8,0,0,1-5.14-1.2,8.7,8.7,0,0,1-3.59-3.5A11.27,11.27,0,0,1,519.2,214V203.44a1.52,1.52,0,0,1,.44-1.1,1.53,1.53,0,0,1,1.1-.44,1.55,1.55,0,0,1,1.13.44,1.48,1.48,0,0,1,.44,1.1V214a8,8,0,0,0,1,4.13,6.07,6.07,0,0,0,2.59,2.43,8.24,8.24,0,0,0,3.7.81,8.08,8.08,0,0,0,3.59-.77,6.46,6.46,0,0,0,2.53-2.1,5.2,5.2,0,0,0,.93-3h2.22a9,9,0,0,1-4.81,7.71A9.94,9.94,0,0,1,529.24,224.29Zm8.9-.25a1.53,1.53,0,0,1-1.11-.42,1.56,1.56,0,0,1-.42-1.15v-19a1.44,1.44,0,0,1,1.53-1.54,1.61,1.61,0,0,1,1.14.42,1.48,1.48,0,0,1,.45,1.12v19a1.51,1.51,0,0,1-.45,1.15A1.61,1.61,0,0,1,538.14,224Z" transform="translate(-8.77 -8.31)"/><path class="cls-24" d="M548.55,224a1.41,1.41,0,0,1-1.54-1.53V203.44a1.41,1.41,0,0,1,1.54-1.54,1.5,1.5,0,0,1,1.13.4,1.54,1.54,0,0,1,.41,1.14v19.07a1.54,1.54,0,0,1-.41,1.13A1.5,1.5,0,0,1,548.55,224Zm-.24-13.64a9.57,9.57,0,0,1,1.31-4.5,8.93,8.93,0,0,1,3.12-3.11,8.22,8.22,0,0,1,4.27-1.13,6.39,6.39,0,0,1,2.88.52,1.28,1.28,0,0,1,.77,1.54,1.2,1.2,0,0,1-.55.81,1.73,1.73,0,0,1-.93.16l-1.24-.08a9,9,0,0,0-4,.47,6,6,0,0,0-2.8,2,5.3,5.3,0,0,0-1,3.28Z" transform="translate(-8.77 -8.31)"/><path class="cls-24" d="M587.5,224.25a11.32,11.32,0,0,1-5.75-1.48,11,11,0,0,1-4-4,11.29,11.29,0,0,1-1.48-5.79,11.5,11.5,0,0,1,1.44-5.75,10.81,10.81,0,0,1,3.91-4,10.67,10.67,0,0,1,5.58-1.47,10.3,10.3,0,0,1,4.9,1.15,9.89,9.89,0,0,1,3.53,3.05V194a1.5,1.5,0,0,1,.44-1.15,1.59,1.59,0,0,1,1.13-.43,1.61,1.61,0,0,1,1.14.43,1.54,1.54,0,0,1,.44,1.15v19.11a11.59,11.59,0,0,1-1.56,5.69,10.78,10.78,0,0,1-4,4A11.24,11.24,0,0,1,587.5,224.25Zm0-2.84a7.92,7.92,0,0,0,7.1-4.13,9.18,9.18,0,0,0,0-8.64,7.9,7.9,0,0,0-2.91-3,8.2,8.2,0,0,0-11.32,3,9.11,9.11,0,0,0,0,8.64,8.17,8.17,0,0,0,3,3A8,8,0,0,0,587.5,221.41Z" transform="translate(-8.77 -8.31)"/><path class="cls-24" d="M616.08,224.25a11.54,11.54,0,0,1-5.81-1.44,10.35,10.35,0,0,1-4-4,11.64,11.64,0,0,1-1.44-5.83,12.26,12.26,0,0,1,1.36-5.85,10.15,10.15,0,0,1,3.75-4,10.34,10.34,0,0,1,5.5-1.45,10.13,10.13,0,0,1,5.37,1.39,9.47,9.47,0,0,1,3.54,3.87,12.18,12.18,0,0,1,1.25,5.63,1.36,1.36,0,0,1-.4,1,1.49,1.49,0,0,1-1.05.38H607v-2.59H624.5l-1.74,1.26a9.25,9.25,0,0,0-.85-4.21,6.88,6.88,0,0,0-2.53-2.92,7.1,7.1,0,0,0-3.91-1,7.46,7.46,0,0,0-4.05,1.09,7.37,7.37,0,0,0-2.69,3,9.81,9.81,0,0,0-1,4.39,8.79,8.79,0,0,0,1.07,4.37,8,8,0,0,0,2.94,3,8.29,8.29,0,0,0,4.29,1.09A9.16,9.16,0,0,0,619,221a7.14,7.14,0,0,0,2.37-1.28,1.67,1.67,0,0,1,1-.38,1.42,1.42,0,0,1,1,.3,1.48,1.48,0,0,1,.54,1,1.18,1.18,0,0,1-.46,1,11.2,11.2,0,0,1-3.4,1.88A11.63,11.63,0,0,1,616.08,224.25Z" transform="translate(-8.77 -8.31)"/><path class="cls-24" d="M637.66,224a1.56,1.56,0,0,1-1.46-1l-9-19.07a1.32,1.32,0,0,1,0-1,1.53,1.53,0,0,1,.81-.81,1.3,1.3,0,0,1,1.1-.08,1.52,1.52,0,0,1,.81.73l8.62,18.66h-1.66l8.5-18.66a1.29,1.29,0,0,1,.83-.75,1.66,1.66,0,0,1,1.16.06,1.49,1.49,0,0,1,.77.83,1.27,1.27,0,0,1,0,1L639.2,223A1.61,1.61,0,0,1,637.66,224Z" transform="translate(-8.77 -8.31)"/><path class="cls-24" d="M654.67,197.69a2.22,2.22,0,0,1-2.19-2.23,2,2,0,0,1,.67-1.6,2.28,2.28,0,0,1,1.56-.59,2.23,2.23,0,0,1,1.51.59,2,2,0,0,1,.67,1.6,2.22,2.22,0,0,1-2.22,2.23Zm0,26.35a1.59,1.59,0,0,1-1.16-.42,1.56,1.56,0,0,1-.42-1.15v-19a1.45,1.45,0,0,1,1.58-1.58,1.52,1.52,0,0,1,1.11.42,1.59,1.59,0,0,1,.42,1.16v19a1.56,1.56,0,0,1-.42,1.15A1.52,1.52,0,0,1,654.71,224Z" transform="translate(-8.77 -8.31)"/><path class="cls-24" d="M674.06,224.25a11,11,0,0,1-5.69-1.48,10.78,10.78,0,0,1-3.93-4A11.5,11.5,0,0,1,663,213a12,12,0,0,1,1.38-5.79,10.52,10.52,0,0,1,3.77-4,10.26,10.26,0,0,1,5.5-1.47,10.63,10.63,0,0,1,4.56,1,10.25,10.25,0,0,1,3.66,2.91,1.09,1.09,0,0,1,.32,1,1.63,1.63,0,0,1-.68.95,1.27,1.27,0,0,1-1,.22,1.6,1.6,0,0,1-1-.59,7.52,7.52,0,0,0-5.91-2.67,7.28,7.28,0,0,0-4,1.09,7.48,7.48,0,0,0-2.67,3,9.69,9.69,0,0,0-1,4.37,9.13,9.13,0,0,0,1,4.33,7.59,7.59,0,0,0,2.84,3,7.91,7.91,0,0,0,4.17,1.09A9.47,9.47,0,0,0,677,221a6.56,6.56,0,0,0,2.33-1.32,1.72,1.72,0,0,1,1-.44,1.31,1.31,0,0,1,1,.32,1.56,1.56,0,0,1,.55,1,1.11,1.11,0,0,1-.38,1A10.51,10.51,0,0,1,674.06,224.25Z" transform="translate(-8.77 -8.31)"/><path class="cls-24" d="M698.35,224.25a11.51,11.51,0,0,1-5.81-1.44,10.35,10.35,0,0,1-4-4,11.64,11.64,0,0,1-1.44-5.83,12.15,12.15,0,0,1,1.36-5.85,10.2,10.2,0,0,1,3.74-4,10.4,10.4,0,0,1,5.51-1.45,10.07,10.07,0,0,1,5.36,1.39,9.42,9.42,0,0,1,3.55,3.87,12.31,12.31,0,0,1,1.25,5.63,1.36,1.36,0,0,1-.4,1,1.49,1.49,0,0,1-1,.38H689.24v-2.59h17.53L705,212.67a9.25,9.25,0,0,0-.85-4.21,7,7,0,0,0-2.53-2.92,7.12,7.12,0,0,0-3.91-1,7.44,7.44,0,0,0-4,1.09,7.3,7.3,0,0,0-2.69,3,9.67,9.67,0,0,0-1,4.39,8.79,8.79,0,0,0,1.07,4.37,8,8,0,0,0,2.94,3,8.29,8.29,0,0,0,4.29,1.09,9.16,9.16,0,0,0,2.93-.5,7.14,7.14,0,0,0,2.37-1.28,1.66,1.66,0,0,1,1-.38,1.45,1.45,0,0,1,1,.3,1.48,1.48,0,0,1,.54,1,1.21,1.21,0,0,1-.46,1,11.26,11.26,0,0,1-3.41,1.88A11.53,11.53,0,0,1,698.35,224.25Z" transform="translate(-8.77 -8.31)"/><g class="cls-2"><polygon class="cls-3" points="14.52 0 0 19.77 0 0 14.52 0"/><polygon class="cls-4" points="30.95 0 0 42.15 0 19.77 14.52 0 30.95 0"/><polygon class="cls-5" points="47.38 0 0 64.53 0 42.15 30.95 0 47.38 0"/><polygon class="cls-6" points="63.81 0 0 86.91 0 64.53 47.38 0 63.81 0"/><polygon class="cls-7" points="80.24 0 0 109.29 0 86.91 63.81 0 80.24 0"/><polygon class="cls-8" points="96.68 0 0 131.67 0 109.29 80.24 0 96.68 0"/><polygon class="cls-9" points="99.46 0 108.33 6.51 6.99 144.53 0 139.4 0 131.67 96.68 0 99.46 0"/><rect class="cls-10" x="-13.84" y="81.13" width="171.22" height="13.25" transform="matrix(0.59, -0.81, 0.81, 0.59, -50.21, 85.36)"/><rect class="cls-11" x="-3.16" y="88.96" width="171.22" height="13.25" transform="translate(-52.17 97.17) rotate(-53.71)"/><rect class="cls-12" x="7.51" y="96.8" width="171.22" height="13.25" transform="translate(-54.13 108.97) rotate(-53.71)"/><rect class="cls-13" x="18.19" y="104.64" width="171.22" height="13.25" transform="matrix(0.59, -0.81, 0.81, 0.59, -56.09, 120.78)"/><polygon class="cls-14" points="151.03 37.87 154.02 40.06 154.02 56.18 60.38 183.72 49.7 175.88 151.03 37.87"/><polygon class="cls-15" points="154.02 78.56 71.05 191.56 60.38 183.72 154.02 56.18 154.02 78.56"/><polygon class="cls-16" points="154.02 100.94 81.73 199.4 71.05 191.56 154.02 78.56 154.02 100.94"/><polygon class="cls-17" points="154.02 123.32 92.41 207.24 81.73 199.4 154.02 100.94 154.02 123.32"/><polygon class="cls-18" points="154.02 145.7 103.08 215.08 92.41 207.24 154.02 123.32 154.02 145.7"/><polygon class="cls-19" points="154.02 168.08 119.04 215.72 103.96 215.72 103.08 215.08 154.02 145.7 154.02 168.08"/><polygon class="cls-20" points="154.02 190.46 135.47 215.72 119.04 215.72 154.02 168.08 154.02 190.46"/><polygon class="cls-21" points="154.02 212.84 151.91 215.72 135.47 215.72 154.02 190.46 154.02 212.84"/><polygon class="cls-22" points="151.91 215.72 154.02 212.84 154.02 215.72 151.91 215.72"/></g><path class="cls-23" d="M225.05,150.3c0,11.69-17.87,12.1-17.87.27V74.26a8,8,0,0,1,8.06-8.19H251c34.12,0,41.11,45.68,12.63,57.1l17.87,21.76c7,10.34-7,20.29-15.05,10.08l-20.29-29H225.05Zm0-39.76H251c17.46,0,18.54-28.21,0-28.21H225.05Z" transform="translate(-8.77 -8.31)"/><path class="cls-23" d="M319.64,159a8.2,8.2,0,0,1-8.32-8.33V74.4a8.11,8.11,0,0,1,8.32-8.33h48.24c12.36,0,12.09,17.46,0,17.46h-38.7v20.16H363c12,0,12,17.6,0,17.6H329.18v20.15h41c12.22,0,13.17,17.6,0,17.6Z" transform="translate(-8.77 -8.31)"/><path class="cls-23" d="M405.64,159c-4.3-2.42-7-7.26-4.3-12.9L439.9,70.77c3.63-7.12,13.3-7.39,16.66,0l37.88,75.37c5.51,10.48-10.74,18.81-15.58,8.33L473,142.65H423.37l-5.77,11.82C415.45,159,410.48,160,405.64,159Zm57.77-34.13L448.23,91.73,431.7,124.91Z" transform="translate(-8.77 -8.31)"/><path class="cls-23" d="M516.76,111.88c0-25.93,16.26-48.23,47.16-48.23,11.69,0,21,3.49,30.76,12a8.71,8.71,0,1,1-11.95,12.63c-5.51-5.78-11.15-7.39-18.81-7.39-20.69,0-30.63,14.64-30.63,31,0,16.66,9.8,32,30.63,32,7.66,0,14.78-3.1,21-8.6a9,9,0,0,1,12.36,1.61c2.15,3,3.22,7.93-1.48,12.63-9.41,8.73-20.69,10.48-31.84,10.48C531.41,160,516.76,137.81,516.76,111.88Z" transform="translate(-8.77 -8.31)"/><path class="cls-23" d="M628.29,150.71V74.4c0-4.84,3.49-8.33,9.54-8.33A8,8,0,0,1,646,74.4v29.29h43.8V74.4c0-4.84,4.3-8.33,9.13-8.33a8.12,8.12,0,0,1,8.33,8.33v76.31A8.2,8.2,0,0,1,699,159c-4.83,0-9.13-3.63-9.13-8.33V121.29H646v29.42a8.09,8.09,0,0,1-8.19,8.33C631.78,159,628.29,155.41,628.29,150.71Z" transform="translate(-8.77 -8.31)"/><path class="cls-24" d="M208.59,205.42a1.4,1.4,0,0,1-1-.39,1.25,1.25,0,0,1-.41-.95,1.32,1.32,0,0,1,.41-1,1.4,1.4,0,0,1,1-.38h10.32a1.4,1.4,0,0,1,1,.38,1.31,1.31,0,0,1,.4,1,1.24,1.24,0,0,1-.4.95,1.41,1.41,0,0,1-1,.39ZM218.67,224a7.2,7.2,0,0,1-3.82-1,7.3,7.3,0,0,1-2.66-2.77,8.31,8.31,0,0,1-1-4v-19.8a1.55,1.55,0,0,1,.43-1.13,1.45,1.45,0,0,1,1.11-.45,1.51,1.51,0,0,1,1.13.45,1.52,1.52,0,0,1,.45,1.13v19.8a4.78,4.78,0,0,0,1.21,3.38,4,4,0,0,0,3.12,1.32h1.09a1.38,1.38,0,0,1,1.06.44,1.64,1.64,0,0,1,.4,1.14,1.4,1.4,0,0,1-.48,1.11,1.81,1.81,0,0,1-1.22.42Z" transform="translate(-8.77 -8.31)"/><path class="cls-24" d="M236,224.25a10.62,10.62,0,0,1-9.49-5.51,11.5,11.5,0,0,1-1.44-5.75,11.29,11.29,0,0,1,1.48-5.79,10.9,10.9,0,0,1,4-4,11.27,11.27,0,0,1,5.74-1.47,11.16,11.16,0,0,1,5.73,1.47,10.92,10.92,0,0,1,4,4,11.62,11.62,0,0,1,1.52,5.79l-1.26,1a10.29,10.29,0,0,1-1.35,5.25,10,10,0,0,1-3.69,3.68A10.23,10.23,0,0,1,236,224.25Zm.32-2.84a8,8,0,0,0,4.19-1.09,7.92,7.92,0,0,0,2.92-3,9.26,9.26,0,0,0,0-8.64,8.14,8.14,0,0,0-2.92-3,7.93,7.93,0,0,0-4.19-1.11,8,8,0,0,0-4.17,1.11,8.22,8.22,0,0,0-2.95,3,9.11,9.11,0,0,0,0,8.64,8,8,0,0,0,2.95,3A8.11,8.11,0,0,0,236.36,221.41ZM246,224a1.56,1.56,0,0,1-1.13-.42,1.45,1.45,0,0,1-.45-1.11v-6.93l.77-3.2,2.39.61v9.52a1.45,1.45,0,0,1-.45,1.11A1.56,1.56,0,0,1,246,224Z" transform="translate(-8.77 -8.31)"/><path class="cls-24" d="M255.23,224a1.5,1.5,0,0,1-1.11-.42,1.47,1.47,0,0,1-.43-1.11V194a1.47,1.47,0,0,1,.43-1.11,1.65,1.65,0,0,1,2.22,0,1.47,1.47,0,0,1,.43,1.11v28.55a1.47,1.47,0,0,1-.43,1.11A1.5,1.5,0,0,1,255.23,224Zm1-7.41-1.9-2.06,13.85-12.51a1.4,1.4,0,0,1,1-.43,1.43,1.43,0,0,1,1,.51,1.38,1.38,0,0,1,.42,1,1.26,1.26,0,0,1-.5,1Zm14,7.21a1.34,1.34,0,0,1-2.07-.2l-9-11.1,2.18-1.94,9.11,11.22a1.45,1.45,0,0,1,.37,1A1.47,1.47,0,0,1,270.21,223.84Z" transform="translate(-8.77 -8.31)"/><path class="cls-24" d="M284.87,224.25a11.51,11.51,0,0,1-5.81-1.44,10.35,10.35,0,0,1-4-4,11.64,11.64,0,0,1-1.44-5.83,12.15,12.15,0,0,1,1.36-5.85,10.2,10.2,0,0,1,3.74-4,10.4,10.4,0,0,1,5.51-1.45,10.07,10.07,0,0,1,5.36,1.39,9.42,9.42,0,0,1,3.55,3.87,12.31,12.31,0,0,1,1.25,5.63,1.36,1.36,0,0,1-.4,1A1.5,1.5,0,0,1,293,214h-17.2v-2.59h17.53l-1.74,1.26a9.38,9.38,0,0,0-.85-4.21,7,7,0,0,0-2.53-2.92,7.12,7.12,0,0,0-3.91-1,7.44,7.44,0,0,0-4.05,1.09,7.3,7.3,0,0,0-2.69,3,9.67,9.67,0,0,0-.95,4.39,8.68,8.68,0,0,0,1.07,4.37,7.89,7.89,0,0,0,2.93,3,8.36,8.36,0,0,0,4.3,1.09,9.16,9.16,0,0,0,2.93-.5,7.14,7.14,0,0,0,2.37-1.28,1.64,1.64,0,0,1,1-.38,1.41,1.41,0,0,1,1,.3,1.5,1.5,0,0,1,.55,1,1.19,1.19,0,0,1-.47,1,11.08,11.08,0,0,1-3.4,1.88A11.53,11.53,0,0,1,284.87,224.25Z" transform="translate(-8.77 -8.31)"/><path class="cls-24" d="M321.42,224.25a11,11,0,0,1-5.68-1.48,10.78,10.78,0,0,1-3.93-4,11.5,11.5,0,0,1-1.44-5.75,12,12,0,0,1,1.38-5.79,10.58,10.58,0,0,1,3.76-4A10.32,10.32,0,0,1,321,201.7a10.58,10.58,0,0,1,4.55,1,10.28,10.28,0,0,1,3.67,2.91,1.14,1.14,0,0,1,.32,1,1.6,1.6,0,0,1-.69.95,1.23,1.23,0,0,1-1,.22,1.6,1.6,0,0,1-.95-.59,7.55,7.55,0,0,0-5.91-2.67,7.17,7.17,0,0,0-6.66,4.09,9.69,9.69,0,0,0-.95,4.37,9.13,9.13,0,0,0,1,4.33,7.64,7.64,0,0,0,2.83,3,8,8,0,0,0,4.17,1.09,9.49,9.49,0,0,0,2.9-.42,6.56,6.56,0,0,0,2.33-1.32,1.72,1.72,0,0,1,1-.44,1.33,1.33,0,0,1,1,.32,1.56,1.56,0,0,1,.55,1,1.09,1.09,0,0,1-.39,1A10.47,10.47,0,0,1,321.42,224.25Z" transform="translate(-8.77 -8.31)"/><path class="cls-24" d="M345.43,224.25a10.65,10.65,0,0,1-9.49-5.51A11.5,11.5,0,0,1,334.5,213,11.29,11.29,0,0,1,336,207.2a11,11,0,0,1,4-4,11.94,11.94,0,0,1,11.48,0,11,11,0,0,1,4,4A11.51,11.51,0,0,1,357,213l-1.25,1a10.2,10.2,0,0,1-1.36,5.25,10,10,0,0,1-3.68,3.68A10.29,10.29,0,0,1,345.43,224.25Zm.33-2.84a8.06,8.06,0,0,0,4.19-1.09,7.83,7.83,0,0,0,2.91-3,9.18,9.18,0,0,0,0-8.64,8.24,8.24,0,0,0-11.27-3,8.25,8.25,0,0,0-3,3,9.11,9.11,0,0,0,0,8.64,8,8,0,0,0,7.13,4.11Zm9.67,2.63a1.58,1.58,0,0,1-1.13-.42,1.45,1.45,0,0,1-.45-1.11v-6.93l.77-3.2L357,213v9.52a1.48,1.48,0,0,1-.44,1.11A1.61,1.61,0,0,1,355.43,224Z" transform="translate(-8.77 -8.31)"/><path class="cls-24" d="M364.62,224a1.41,1.41,0,0,1-1.54-1.53V203.44a1.54,1.54,0,1,1,3.08,0v19.07a1.39,1.39,0,0,1-1.54,1.53Zm-.24-13.64a9.46,9.46,0,0,1,1.32-4.5,8.82,8.82,0,0,1,3.11-3.11,8.25,8.25,0,0,1,4.28-1.13,6.34,6.34,0,0,1,2.87.52,1.28,1.28,0,0,1,.77,1.54,1.2,1.2,0,0,1-.55.81,1.69,1.69,0,0,1-.93.16l-1.23-.08a9,9,0,0,0-4,.47,6,6,0,0,0-2.8,2,5.37,5.37,0,0,0-1,3.28Z" transform="translate(-8.77 -8.31)"/><path class="cls-24" d="M390.05,224.25a11.54,11.54,0,0,1-5.81-1.44,10.35,10.35,0,0,1-4-4,11.64,11.64,0,0,1-1.43-5.83,12.26,12.26,0,0,1,1.35-5.85,10.15,10.15,0,0,1,3.75-4,10.34,10.34,0,0,1,5.5-1.45,10.13,10.13,0,0,1,5.37,1.39,9.47,9.47,0,0,1,3.54,3.87,12.31,12.31,0,0,1,1.25,5.63,1.36,1.36,0,0,1-.4,1,1.49,1.49,0,0,1-1.05.38H380.94v-2.59h17.53l-1.74,1.26a9.25,9.25,0,0,0-.85-4.21,6.88,6.88,0,0,0-2.53-2.92,7.1,7.1,0,0,0-3.91-1,7.44,7.44,0,0,0-4.05,1.09,7.3,7.3,0,0,0-2.69,3,9.81,9.81,0,0,0-.95,4.39,8.79,8.79,0,0,0,1.07,4.37,8,8,0,0,0,2.94,3,8.29,8.29,0,0,0,4.29,1.09A9.26,9.26,0,0,0,393,221a7.19,7.19,0,0,0,2.36-1.28,1.67,1.67,0,0,1,1-.38,1.42,1.42,0,0,1,1,.3,1.48,1.48,0,0,1,.54,1,1.18,1.18,0,0,1-.46,1,11.2,11.2,0,0,1-3.4,1.88A11.63,11.63,0,0,1,390.05,224.25Z" transform="translate(-8.77 -8.31)"/><path class="cls-24" d="M426.81,224.25a11.48,11.48,0,0,1-5.79-1.46,10.65,10.65,0,0,1-4-4,12.36,12.36,0,0,1,0-11.62,10.65,10.65,0,0,1,4-4,12.25,12.25,0,0,1,11.56,0,10.6,10.6,0,0,1,4,4,11.88,11.88,0,0,1,1.5,5.83,11.39,11.39,0,0,1-1.48,5.79,10.79,10.79,0,0,1-4,4A11.38,11.38,0,0,1,426.81,224.25Zm0-2.84a8.13,8.13,0,0,0,4.21-1.09,7.77,7.77,0,0,0,2.91-3A8.71,8.71,0,0,0,435,213a8.81,8.81,0,0,0-1.06-4.35,7.75,7.75,0,0,0-2.91-3,8.68,8.68,0,0,0-8.42,0,7.87,7.87,0,0,0-2.93,3,8.72,8.72,0,0,0-1.08,4.35,8.62,8.62,0,0,0,1.08,4.33,7.89,7.89,0,0,0,2.93,3A8.13,8.13,0,0,0,426.81,221.41Z" transform="translate(-8.77 -8.31)"/><path class="cls-24" d="M442.8,205.42a1.39,1.39,0,0,1-1-.39,1.27,1.27,0,0,1-.39-.95,1.34,1.34,0,0,1,.39-1,1.38,1.38,0,0,1,1-.38h10.57a1.38,1.38,0,0,1,1,.38,1.34,1.34,0,0,1,.39,1,1.27,1.27,0,0,1-.39.95,1.39,1.39,0,0,1-1,.39ZM446.89,224a1.47,1.47,0,0,1-1.05-.42,1.51,1.51,0,0,1-.45-1.15V201.94a12.09,12.09,0,0,1,1-5,7.47,7.47,0,0,1,2.88-3.34,8.57,8.57,0,0,1,4.66-1.2,1.64,1.64,0,0,1,1.13.41,1.33,1.33,0,0,1,.44,1,1.32,1.32,0,0,1-.44,1,1.64,1.64,0,0,1-1.13.41,5.2,5.2,0,0,0-3,.83,4.91,4.91,0,0,0-1.78,2.3,9,9,0,0,0-.59,3.39v20.69a1.56,1.56,0,0,1-.42,1.15A1.66,1.66,0,0,1,446.89,224Z" transform="translate(-8.77 -8.31)"/><path class="cls-24" d="M479.12,223.36a1.53,1.53,0,0,1-1.14.1,1.58,1.58,0,0,1-.85-.79l-9-18.71a1.37,1.37,0,0,1-.08-1.13,1.47,1.47,0,0,1,.8-.81,1.49,1.49,0,0,1,1.14-.1,1.39,1.39,0,0,1,.81.79l8.87,18.7a1.66,1.66,0,0,1,.2,1.14A1.21,1.21,0,0,1,479.12,223.36Zm-4.5,10.32a2.15,2.15,0,0,1-.72-.16,1.3,1.3,0,0,1-.77-2l13.07-28.82a1.33,1.33,0,0,1,1.95-.73,1.26,1.26,0,0,1,.77,1.9L475.8,232.75A1.28,1.28,0,0,1,474.62,233.68Z" transform="translate(-8.77 -8.31)"/><path class="cls-24" d="M502.28,224.25a11.48,11.48,0,0,1-5.79-1.46,10.58,10.58,0,0,1-4-4,12.29,12.29,0,0,1,0-11.62,10.58,10.58,0,0,1,4-4,12.25,12.25,0,0,1,11.56,0,10.64,10.64,0,0,1,4,4,11.67,11.67,0,0,1,1.5,5.83,11.29,11.29,0,0,1-1.48,5.79,10.77,10.77,0,0,1-4,4A11.4,11.4,0,0,1,502.28,224.25Zm0-2.84a8.18,8.18,0,0,0,4.21-1.09,7.77,7.77,0,0,0,2.91-3,8.82,8.82,0,0,0,1.06-4.33,8.92,8.92,0,0,0-1.06-4.35,7.75,7.75,0,0,0-2.91-3,8.68,8.68,0,0,0-8.42,0,7.9,7.9,0,0,0-2.94,3,8.82,8.82,0,0,0-1.07,4.35,8.71,8.71,0,0,0,1.07,4.33,7.92,7.92,0,0,0,2.94,3A8.13,8.13,0,0,0,502.28,221.41Z" transform="translate(-8.77 -8.31)"/><path class="cls-24" d="M529.24,224.29a10.8,10.8,0,0,1-5.14-1.2,8.7,8.7,0,0,1-3.59-3.5A11.27,11.27,0,0,1,519.2,214V203.44a1.52,1.52,0,0,1,.44-1.1,1.53,1.53,0,0,1,1.1-.44,1.55,1.55,0,0,1,1.13.44,1.48,1.48,0,0,1,.44,1.1V214a8,8,0,0,0,1,4.13,6.07,6.07,0,0,0,2.59,2.43,8.24,8.24,0,0,0,3.7.81,8.08,8.08,0,0,0,3.59-.77,6.46,6.46,0,0,0,2.53-2.1,5.2,5.2,0,0,0,.93-3h2.22a9,9,0,0,1-4.81,7.71A9.94,9.94,0,0,1,529.24,224.29Zm8.9-.25a1.53,1.53,0,0,1-1.11-.42,1.56,1.56,0,0,1-.42-1.15v-19a1.44,1.44,0,0,1,1.53-1.54,1.61,1.61,0,0,1,1.14.42,1.48,1.48,0,0,1,.45,1.12v19a1.51,1.51,0,0,1-.45,1.15A1.61,1.61,0,0,1,538.14,224Z" transform="translate(-8.77 -8.31)"/><path class="cls-24" d="M548.55,224a1.41,1.41,0,0,1-1.54-1.53V203.44a1.41,1.41,0,0,1,1.54-1.54,1.5,1.5,0,0,1,1.13.4,1.54,1.54,0,0,1,.41,1.14v19.07a1.54,1.54,0,0,1-.41,1.13A1.5,1.5,0,0,1,548.55,224Zm-.24-13.64a9.57,9.57,0,0,1,1.31-4.5,8.93,8.93,0,0,1,3.12-3.11,8.22,8.22,0,0,1,4.27-1.13,6.39,6.39,0,0,1,2.88.52,1.28,1.28,0,0,1,.77,1.54,1.2,1.2,0,0,1-.55.81,1.73,1.73,0,0,1-.93.16l-1.24-.08a9,9,0,0,0-4,.47,6,6,0,0,0-2.8,2,5.3,5.3,0,0,0-1,3.28Z" transform="translate(-8.77 -8.31)"/><path class="cls-24" d="M587.5,224.25a11.32,11.32,0,0,1-5.75-1.48,11,11,0,0,1-4-4,11.29,11.29,0,0,1-1.48-5.79,11.5,11.5,0,0,1,1.44-5.75,10.81,10.81,0,0,1,3.91-4,10.67,10.67,0,0,1,5.58-1.47,10.3,10.3,0,0,1,4.9,1.15,9.89,9.89,0,0,1,3.53,3.05V194a1.5,1.5,0,0,1,.44-1.15,1.59,1.59,0,0,1,1.13-.43,1.61,1.61,0,0,1,1.14.43,1.54,1.54,0,0,1,.44,1.15v19.11a11.59,11.59,0,0,1-1.56,5.69,10.78,10.78,0,0,1-4,4A11.24,11.24,0,0,1,587.5,224.25Zm0-2.84a7.92,7.92,0,0,0,7.1-4.13,9.18,9.18,0,0,0,0-8.64,7.9,7.9,0,0,0-2.91-3,8.2,8.2,0,0,0-11.32,3,9.11,9.11,0,0,0,0,8.64,8.17,8.17,0,0,0,3,3A8,8,0,0,0,587.5,221.41Z" transform="translate(-8.77 -8.31)"/><path class="cls-24" d="M616.08,224.25a11.54,11.54,0,0,1-5.81-1.44,10.35,10.35,0,0,1-4-4,11.64,11.64,0,0,1-1.44-5.83,12.26,12.26,0,0,1,1.36-5.85,10.15,10.15,0,0,1,3.75-4,10.34,10.34,0,0,1,5.5-1.45,10.13,10.13,0,0,1,5.37,1.39,9.47,9.47,0,0,1,3.54,3.87,12.18,12.18,0,0,1,1.25,5.63,1.36,1.36,0,0,1-.4,1,1.49,1.49,0,0,1-1.05.38H607v-2.59H624.5l-1.74,1.26a9.25,9.25,0,0,0-.85-4.21,6.88,6.88,0,0,0-2.53-2.92,7.1,7.1,0,0,0-3.91-1,7.46,7.46,0,0,0-4.05,1.09,7.37,7.37,0,0,0-2.69,3,9.81,9.81,0,0,0-1,4.39,8.79,8.79,0,0,0,1.07,4.37,8,8,0,0,0,2.94,3,8.29,8.29,0,0,0,4.29,1.09A9.16,9.16,0,0,0,619,221a7.14,7.14,0,0,0,2.37-1.28,1.67,1.67,0,0,1,1-.38,1.42,1.42,0,0,1,1,.3,1.48,1.48,0,0,1,.54,1,1.18,1.18,0,0,1-.46,1,11.2,11.2,0,0,1-3.4,1.88A11.63,11.63,0,0,1,616.08,224.25Z" transform="translate(-8.77 -8.31)"/><path class="cls-24" d="M637.66,224a1.56,1.56,0,0,1-1.46-1l-9-19.07a1.32,1.32,0,0,1,0-1,1.53,1.53,0,0,1,.81-.81,1.3,1.3,0,0,1,1.1-.08,1.52,1.52,0,0,1,.81.73l8.62,18.66h-1.66l8.5-18.66a1.29,1.29,0,0,1,.83-.75,1.66,1.66,0,0,1,1.16.06,1.49,1.49,0,0,1,.77.83,1.27,1.27,0,0,1,0,1L639.2,223A1.61,1.61,0,0,1,637.66,224Z" transform="translate(-8.77 -8.31)"/><path class="cls-24" d="M654.67,197.69a2.22,2.22,0,0,1-2.19-2.23,2,2,0,0,1,.67-1.6,2.28,2.28,0,0,1,1.56-.59,2.23,2.23,0,0,1,1.51.59,2,2,0,0,1,.67,1.6,2.22,2.22,0,0,1-2.22,2.23Zm0,26.35a1.59,1.59,0,0,1-1.16-.42,1.56,1.56,0,0,1-.42-1.15v-19a1.45,1.45,0,0,1,1.58-1.58,1.52,1.52,0,0,1,1.11.42,1.59,1.59,0,0,1,.42,1.16v19a1.56,1.56,0,0,1-.42,1.15A1.52,1.52,0,0,1,654.71,224Z" transform="translate(-8.77 -8.31)"/><path class="cls-24" d="M674.06,224.25a11,11,0,0,1-5.69-1.48,10.78,10.78,0,0,1-3.93-4A11.5,11.5,0,0,1,663,213a12,12,0,0,1,1.38-5.79,10.52,10.52,0,0,1,3.77-4,10.26,10.26,0,0,1,5.5-1.47,10.63,10.63,0,0,1,4.56,1,10.25,10.25,0,0,1,3.66,2.91,1.09,1.09,0,0,1,.32,1,1.63,1.63,0,0,1-.68.95,1.27,1.27,0,0,1-1,.22,1.6,1.6,0,0,1-1-.59,7.52,7.52,0,0,0-5.91-2.67,7.28,7.28,0,0,0-4,1.09,7.48,7.48,0,0,0-2.67,3,9.69,9.69,0,0,0-1,4.37,9.13,9.13,0,0,0,1,4.33,7.59,7.59,0,0,0,2.84,3,7.91,7.91,0,0,0,4.17,1.09A9.47,9.47,0,0,0,677,221a6.56,6.56,0,0,0,2.33-1.32,1.72,1.72,0,0,1,1-.44,1.31,1.31,0,0,1,1,.32,1.56,1.56,0,0,1,.55,1,1.11,1.11,0,0,1-.38,1A10.51,10.51,0,0,1,674.06,224.25Z" transform="translate(-8.77 -8.31)"/><path class="cls-24" d="M698.35,224.25a11.51,11.51,0,0,1-5.81-1.44,10.35,10.35,0,0,1-4-4,11.64,11.64,0,0,1-1.44-5.83,12.15,12.15,0,0,1,1.36-5.85,10.2,10.2,0,0,1,3.74-4,10.4,10.4,0,0,1,5.51-1.45,10.07,10.07,0,0,1,5.36,1.39,9.42,9.42,0,0,1,3.55,3.87,12.31,12.31,0,0,1,1.25,5.63,1.36,1.36,0,0,1-.4,1,1.49,1.49,0,0,1-1,.38H689.24v-2.59h17.53L705,212.67a9.25,9.25,0,0,0-.85-4.21,7,7,0,0,0-2.53-2.92,7.12,7.12,0,0,0-3.91-1,7.44,7.44,0,0,0-4,1.09,7.3,7.3,0,0,0-2.69,3,9.67,9.67,0,0,0-1,4.39,8.79,8.79,0,0,0,1.07,4.37,8,8,0,0,0,2.94,3,8.29,8.29,0,0,0,4.29,1.09,9.16,9.16,0,0,0,2.93-.5,7.14,7.14,0,0,0,2.37-1.28,1.66,1.66,0,0,1,1-.38,1.45,1.45,0,0,1,1,.3,1.48,1.48,0,0,1,.54,1,1.21,1.21,0,0,1-.46,1,11.26,11.26,0,0,1-3.41,1.88A11.53,11.53,0,0,1,698.35,224.25Z" transform="translate(-8.77 -8.31)"/></svg>