<svg width="25" height="18" viewBox="0 0 25 18" fill="none" xmlns="http://www.w3.org/2000/svg">
<path d="M22.5383 17.2191H2.46135C1.64764 17.2191 1 16.5677 1 15.7861V8.91414C1 8.11621 1.66425 7.48112 2.46135 7.48112H22.5383C23.3521 7.48112 23.9997 8.13249 23.9997 8.91414V15.7861C24.0163 16.5677 23.3521 17.2191 22.5383 17.2191Z" stroke="black" stroke-miterlimit="10" stroke-linecap="round" stroke-linejoin="round"/>
<path d="M10.1997 7.46484H4.07202C3.59044 7.46484 3.2085 7.0903 3.2085 6.61806C3.2085 6.14582 3.59044 5.77128 4.07202 5.77128H10.1997C10.6813 5.77128 11.0633 6.14582 11.0633 6.61806C11.0633 7.0903 10.6813 7.46484 10.1997 7.46484Z" stroke="black" stroke-miterlimit="10" stroke-linecap="round" stroke-linejoin="round"/>
<path d="M6.77979 1H2.47876V2.74241H3.35889C4.27224 2.74241 5.01952 3.4752 5.01952 4.37083V5.78756" stroke="black" stroke-miterlimit="10" stroke-linecap="round" stroke-linejoin="round"/>
<path d="M6.78198 1H11.083V2.74241H10.2029C9.28953 2.74241 8.54225 3.4752 8.54225 4.37083V5.78756" stroke="black" stroke-miterlimit="10" stroke-linecap="round" stroke-linejoin="round"/>
<path d="M16.6924 14.8252C18.1323 14.8252 19.2996 13.6806 19.2996 12.2686C19.2996 10.8566 18.1323 9.71199 16.6924 9.71199C15.2525 9.71199 14.0852 10.8566 14.0852 12.2686C14.0852 13.6806 15.2525 14.8252 16.6924 14.8252Z" stroke="black" stroke-miterlimit="10" stroke-linecap="round" stroke-linejoin="round"/>
<path d="M16.69 13.4249C17.3412 13.4249 17.8691 12.9072 17.8691 12.2687C17.8691 11.6302 17.3412 11.1125 16.69 11.1125C16.0389 11.1125 15.511 11.6302 15.511 12.2687C15.511 12.9072 16.0389 13.4249 16.69 13.4249Z" stroke="black" stroke-miterlimit="10" stroke-linecap="round" stroke-linejoin="round"/>
<path d="M3.38867 9.77715H11.2434" stroke="black" stroke-miterlimit="10" stroke-linecap="round" stroke-linejoin="round"/>
<path d="M3.38867 14.8089H11.2434" stroke="black" stroke-miterlimit="10" stroke-linecap="round" stroke-linejoin="round"/>
</svg>
