<svg width="20" height="22" viewBox="0 0 20 22" fill="none" xmlns="http://www.w3.org/2000/svg">
<g filter="url(#filter0_d_0_1612)">
<path d="M5.79773 2.60733H14.0067V11.6774C14.0067 11.994 13.8809 12.2977 13.657 12.5217C13.433 12.7456 13.1293 12.8714 12.8127 12.8714H7.00898C6.85074 12.8737 6.69361 12.8445 6.54675 12.7855C6.39989 12.7265 6.26623 12.6389 6.15352 12.5278C6.04081 12.4167 5.95132 12.2843 5.89024 12.1383C5.82916 11.9923 5.79771 11.8356 5.79773 11.6774V2.60733Z" fill="white" stroke="black" stroke-width="0.7" stroke-linecap="round" stroke-linejoin="round"/>
<path d="M5 2.60733H15" stroke="black" stroke-width="0.7" stroke-linecap="round" stroke-linejoin="round"/>
<path d="M8.1115 4.06546V11.4076" stroke="black" stroke-width="0.7" stroke-linecap="round" stroke-linejoin="round"/>
<path d="M10.0005 4.06546V11.4076" stroke="black" stroke-width="0.7" stroke-linecap="round" stroke-linejoin="round"/>
<path d="M11.8883 4.06546V11.4076" stroke="black" stroke-width="0.7" stroke-linecap="round" stroke-linejoin="round"/>
<path d="M8.1115 2.33755V1.85533C8.11149 1.62947 8.20081 1.41279 8.35998 1.25255C8.51915 1.09231 8.73523 1.00152 8.96108 1H11.309C11.4213 1 11.5326 1.02215 11.6363 1.06513C11.7401 1.10812 11.8344 1.17109 11.9138 1.25052C11.9933 1.32994 12.0563 1.42424 12.0992 1.52801C12.1422 1.63179 12.1643 1.74301 12.1643 1.85533V2.59014" fill="white"/>
<path d="M8.1115 2.33755V1.85533C8.11149 1.62947 8.20081 1.41279 8.35998 1.25255C8.51915 1.09231 8.73523 1.00152 8.96108 1H11.309C11.4213 1 11.5326 1.02215 11.6363 1.06513C11.7401 1.10812 11.8344 1.17109 11.9138 1.25052C11.9933 1.32994 12.0563 1.42424 12.0992 1.52801C12.1422 1.63179 12.1643 1.74301 12.1643 1.85533V2.59014" stroke="black" stroke-width="0.7" stroke-linecap="round" stroke-linejoin="round"/>
</g>
<defs>
<filter id="filter0_d_0_1612" x="0.650002" y="0.649994" width="18.7" height="20.5715" filterUnits="userSpaceOnUse" color-interpolation-filters="sRGB">
<feFlood flood-opacity="0" result="BackgroundImageFix"/>
<feColorMatrix in="SourceAlpha" type="matrix" values="0 0 0 0 0 0 0 0 0 0 0 0 0 0 0 0 0 0 127 0" result="hardAlpha"/>
<feOffset dy="4"/>
<feGaussianBlur stdDeviation="2"/>
<feComposite in2="hardAlpha" operator="out"/>
<feColorMatrix type="matrix" values="0 0 0 0 0 0 0 0 0 0 0 0 0 0 0 0 0 0 0.25 0"/>
<feBlend mode="normal" in2="BackgroundImageFix" result="effect1_dropShadow_0_1612"/>
<feBlend mode="normal" in="SourceGraphic" in2="effect1_dropShadow_0_1612" result="shape"/>
</filter>
</defs>
</svg>
