<svg width="12" height="14" viewBox="0 0 12 14" fill="none" xmlns="http://www.w3.org/2000/svg">
<path d="M1.79773 2.60733H10.0067V11.6774C10.0067 11.994 9.88088 12.2977 9.65696 12.5217C9.43304 12.7456 9.12933 12.8714 8.81265 12.8714H3.00898C2.85074 12.8737 2.69361 12.8445 2.54675 12.7855C2.39989 12.7265 2.26623 12.6389 2.15352 12.5278C2.04081 12.4167 1.95132 12.2843 1.89024 12.1383C1.82916 11.9923 1.79771 11.8356 1.79773 11.6774V2.60733Z" stroke="black" stroke-width="0.7" stroke-linecap="round" stroke-linejoin="round"/>
<path d="M1 2.60733H11" stroke="black" stroke-width="0.7" stroke-linecap="round" stroke-linejoin="round"/>
<path d="M4.1115 4.06544V11.4076" stroke="black" stroke-width="0.7" stroke-linecap="round" stroke-linejoin="round"/>
<path d="M6.0005 4.06544V11.4076" stroke="black" stroke-width="0.7" stroke-linecap="round" stroke-linejoin="round"/>
<path d="M7.88834 4.06544V11.4076" stroke="black" stroke-width="0.7" stroke-linecap="round" stroke-linejoin="round"/>
<path d="M4.1115 2.33755V1.85533C4.11149 1.62947 4.20081 1.41279 4.35998 1.25255C4.51915 1.09231 4.73523 1.00152 4.96108 1H7.30901C7.42133 1 7.53255 1.02215 7.63633 1.06513C7.7401 1.10812 7.8344 1.17109 7.91383 1.25052C7.99325 1.32994 8.05626 1.42424 8.09924 1.52801C8.14223 1.63179 8.16434 1.74301 8.16434 1.85533V2.59014" stroke="black" stroke-width="0.7" stroke-linecap="round" stroke-linejoin="round"/>
</svg>
