<svg width="23" height="14" viewBox="0 0 23 14" fill="none" xmlns="http://www.w3.org/2000/svg">
<path d="M9.07724 13.3195C9.97489 13.3195 10.7026 12.5822 10.7026 11.6727C10.7026 10.7631 9.97489 10.0258 9.07724 10.0258C8.17959 10.0258 7.4519 10.7631 7.4519 11.6727C7.4519 12.5822 8.17959 13.3195 9.07724 13.3195Z" stroke="#A7A7A7" stroke-linecap="round" stroke-linejoin="round"/>
<path d="M19.2429 13.3195C20.1405 13.3195 20.8682 12.5822 20.8682 11.6727C20.8682 10.7631 20.1405 10.0258 19.2429 10.0258C18.3452 10.0258 17.6176 10.7631 17.6176 11.6727C17.6176 12.5822 18.3452 13.3195 19.2429 13.3195Z" stroke="#A7A7A7" stroke-linecap="round" stroke-linejoin="round"/>
<path d="M16.2123 4.07071H18.9405C19.0348 4.0685 19.1281 4.08968 19.2124 4.13239C19.2967 4.17511 19.3695 4.23807 19.4243 4.31578L21.3592 7.15367C21.4138 7.23155 21.4865 7.29462 21.5709 7.33736C21.6552 7.38009 21.7486 7.40117 21.8429 7.39874C21.9187 7.39874 21.9938 7.41391 22.0638 7.44338C22.1338 7.47284 22.1973 7.51602 22.2508 7.57044C22.3043 7.62486 22.3467 7.68945 22.3754 7.7605C22.4042 7.83155 22.4189 7.90766 22.4186 7.98446V11.0993C22.4186 11.254 22.3579 11.4023 22.25 11.5117C22.142 11.6211 21.9956 11.6825 21.8429 11.6825H20.8755" stroke="#A7A7A7" stroke-linecap="round" stroke-linejoin="round"/>
<path d="M10.7026 11.6727H17.6175" stroke="#A7A7A7" stroke-linecap="round" stroke-linejoin="round"/>
<path d="M4.8349 8.58252V11.0994C4.83554 11.2539 4.89639 11.4018 5.00421 11.5111C5.11202 11.6203 5.25807 11.682 5.41054 11.6826H7.45431" stroke="#A7A7A7" stroke-linecap="round" stroke-linejoin="round"/>
<path d="M4.65839 4.07072V1.58327C4.65839 1.50647 4.67335 1.43042 4.70243 1.3595C4.73151 1.28857 4.77413 1.22416 4.82784 1.16997C4.88155 1.11578 4.94529 1.07287 5.01541 1.0437C5.08553 1.01453 5.16064 0.999682 5.23644 1.00001H15.6367C15.7893 1.00001 15.9358 1.06146 16.0437 1.17084C16.1517 1.28023 16.2123 1.42858 16.2123 1.58327V11.6727" stroke="#A7A7A7" stroke-linecap="round" stroke-linejoin="round"/>
<path d="M17.6176 5.2666V6.82033C17.6182 6.97525 17.6794 7.1236 17.7877 7.23291C17.8961 7.34222 18.0427 7.4036 18.1956 7.4036H21.5285" stroke="#A7A7A7" stroke-linecap="round" stroke-linejoin="round"/>
<path d="M3.14185 8.58252H7.78325" stroke="#A7A7A7" stroke-linecap="round" stroke-linejoin="round"/>
<path d="M1 6.31958H5.64141" stroke="#A7A7A7" stroke-linecap="round" stroke-linejoin="round"/>
<path d="M3.14185 4.07074H7.78325" stroke="#A7A7A7" stroke-linecap="round" stroke-linejoin="round"/>
</svg>
