<svg width="30" height="29" viewBox="0 0 30 29" fill="none" xmlns="http://www.w3.org/2000/svg">
<path d="M15.2043 15.126C19.2157 15.126 22.4805 11.8546 22.4805 7.8352C22.4805 3.81578 19.2157 0.544434 15.2043 0.544434C11.1929 0.544434 7.9281 3.81578 7.9281 7.8352C7.9281 11.8546 11.1929 15.126 15.2043 15.126ZM15.2043 1.50659C18.6876 1.50659 21.5203 4.34497 21.5203 7.8352C21.5203 11.3254 18.6876 14.1638 15.2043 14.1638C11.721 14.1638 8.88834 11.3254 8.88834 7.8352C8.88834 4.34497 11.721 1.50659 15.2043 1.50659Z" fill="#231F20" stroke="black" stroke-width="0.2"/>
<path d="M29.3414 23.6608C29.3294 21.5369 27.2313 17.7123 26.247 16.8054C25.4476 16.0718 23.7816 16.3388 21.2586 16.7429C19.4222 17.0363 17.3409 17.3707 15.1707 17.3731C13.0006 17.3707 10.9193 17.0363 9.08282 16.7429C6.5598 16.3388 4.89379 16.0718 4.09439 16.8054C3.11015 17.7099 1.01203 21.5369 1.00003 23.6608C0.997626 24.2694 1.15847 24.7312 1.48014 25.0343C3.84953 27.2617 11.6563 27.9929 15.1371 28.0002C15.1467 28.0002 15.1587 28.0002 15.1707 28.0002C15.1803 28.0002 15.1923 28.0002 15.2043 28.0002C18.6852 27.9905 26.4919 27.2617 28.8613 25.0343C29.183 24.7312 29.3438 24.267 29.3414 23.6608ZM28.2035 24.3319C26.1774 26.2394 18.7356 27.0332 15.1707 27.038C11.6058 27.0332 4.16641 26.2394 2.13791 24.3319C2.02268 24.2237 1.95786 23.9856 1.96026 23.6656C1.96987 21.8688 3.87594 18.3112 4.74495 17.5126C5.20106 17.0941 7.01351 17.3827 8.93158 17.6906C10.7032 17.9745 12.9022 18.3256 15.1371 18.3329V18.3353C15.1491 18.3353 15.1587 18.3353 15.1707 18.3353C15.1827 18.3353 15.1923 18.3353 15.2043 18.3353V18.3329C17.4417 18.3256 19.6406 17.9745 21.4099 17.6906C23.3279 17.3827 25.1404 17.0941 25.5965 17.5126C26.4655 18.3112 28.3716 21.8688 28.3812 23.6656C28.3836 23.9856 28.3188 24.2237 28.2035 24.3319Z" fill="#231F20" stroke="black" stroke-width="0.2"/>
</svg>
