<svg width="23" height="25" viewBox="0 0 23 25" fill="none" xmlns="http://www.w3.org/2000/svg">
<path d="M10.6369 1.73946L1.45949 10.2992C1.33615 10.417 1.23734 10.5594 1.16903 10.7178C1.10072 10.8761 1.06431 11.0471 1.06208 11.2204L1 23.0684C1 23.4078 1.13086 23.7332 1.36375 23.9731C1.59665 24.2131 1.9125 24.3479 2.24187 24.3479H6.79954C7.12891 24.3479 7.44476 24.2131 7.67766 23.9731C7.91055 23.7332 8.04141 23.4078 8.04141 23.0684V19.166C8.04141 18.8266 8.17223 18.5012 8.40513 18.2613C8.63802 18.0213 8.95392 17.8865 9.28328 17.8865H13.7043C14.0337 17.8865 14.3495 18.0213 14.5824 18.2613C14.8153 18.5012 14.9462 18.8266 14.9462 19.166V23.0684C14.9462 23.4078 15.077 23.7332 15.3099 23.9731C15.5428 24.2131 15.8587 24.3479 16.1881 24.3479H20.7581C21.0875 24.3479 21.4034 24.2131 21.6362 23.9731C21.8691 23.7332 22 23.4078 22 23.0684V11.2204C21.9995 11.045 21.9639 10.8715 21.8955 10.7109C21.8271 10.5502 21.7274 10.4057 21.6026 10.2864L12.4252 1.73946C12.3094 1.61563 12.1704 1.51713 12.0168 1.44985C11.8632 1.38258 11.698 1.3479 11.5311 1.3479C11.3641 1.3479 11.1989 1.38258 11.0453 1.44985C10.8916 1.51713 10.7528 1.61563 10.6369 1.73946Z" stroke="black" stroke-width="1.2" stroke-miterlimit="10"/>
</svg>
