<svg width="22" height="14" viewBox="0 0 22 14" fill="none" xmlns="http://www.w3.org/2000/svg">
<path d="M19.2427 12.8167H2.43938C1.67488 12.8167 1.06641 12.1662 1.06641 11.3856V2.86435C1.06641 2.06751 1.69048 1.43329 2.43938 1.43329H19.2427C20.0072 1.43329 20.6156 2.08377 20.6156 2.86435V11.3694C20.6312 12.1662 20.0072 12.8167 19.2427 12.8167Z" stroke="#231F20" stroke-miterlimit="10" stroke-linecap="round" stroke-linejoin="round"/>
<path d="M21.4284 5.05974H20.8667V9.19029H21.4284V5.05974Z" stroke="#231F20" stroke-miterlimit="10" stroke-linecap="round" stroke-linejoin="round"/>
<path d="M5.51377 11.3206H2.68982C2.61181 11.3206 2.5338 11.2556 2.5338 11.158V3.09203C2.5338 3.01072 2.59621 2.92941 2.68982 2.92941H5.51377C5.59178 2.92941 5.66979 2.99446 5.66979 3.09203V11.158C5.66979 11.2393 5.60738 11.3206 5.51377 11.3206Z" stroke="#231F20" stroke-miterlimit="10" stroke-linecap="round" stroke-linejoin="round"/>
<path d="M10.0525 11.3206H7.22857C7.15056 11.3206 7.07255 11.2556 7.07255 11.158V3.09203C7.07255 3.01072 7.13496 2.92941 7.22857 2.92941H10.0681C10.1461 2.92941 10.2241 2.99446 10.2241 3.09203V11.158C10.2085 11.2393 10.1305 11.3206 10.0525 11.3206Z" stroke="#231F20" stroke-miterlimit="10" stroke-linecap="round" stroke-linejoin="round"/>
<path d="M14.5942 11.3206H11.7546C11.6766 11.3206 11.5986 11.2556 11.5986 11.158V3.09203C11.5986 3.01072 11.661 2.92941 11.7546 2.92941H14.5942C14.6722 2.92941 14.7502 2.99446 14.7502 3.09203V11.158C14.7346 11.2393 14.6722 11.3206 14.5942 11.3206Z" stroke="#231F20" stroke-miterlimit="10" stroke-linecap="round" stroke-linejoin="round"/>
</svg>
