<svg width="19" height="22" viewBox="0 0 19 22" fill="none" xmlns="http://www.w3.org/2000/svg">
<path d="M2.35352 3.72705H16.2817V19.1162C16.2817 19.6535 16.0683 20.1688 15.6883 20.5488C15.3084 20.9287 14.7931 21.1422 14.2558 21.1422H4.40865C4.14016 21.146 3.87357 21.0965 3.62439 20.9964C3.37521 20.8963 3.14842 20.7477 2.95719 20.5592C2.76596 20.3707 2.61411 20.1461 2.51048 19.8983C2.40684 19.6506 2.35349 19.3848 2.35352 19.1162V3.72705Z" stroke="#A7A7A7" stroke-linecap="round" stroke-linejoin="round"/>
<path d="M1 3.72705H17.9671" stroke="#A7A7A7" stroke-linecap="round" stroke-linejoin="round"/>
<path d="M6.2793 6.20117V18.6586" stroke="#A7A7A7" stroke-linecap="round" stroke-linejoin="round"/>
<path d="M9.48438 6.20117V18.6586" stroke="#A7A7A7" stroke-linecap="round" stroke-linejoin="round"/>
<path d="M12.6875 6.20117V18.6586" stroke="#A7A7A7" stroke-linecap="round" stroke-linejoin="round"/>
<path d="M6.2793 3.26943V2.45125C6.27929 2.06803 6.43084 1.70039 6.7009 1.4285C6.97096 1.15662 7.33759 1.00257 7.7208 1H11.7045C11.8951 1 12.0838 1.03758 12.2599 1.11051C12.436 1.18345 12.596 1.29029 12.7307 1.42505C12.8655 1.55982 12.9724 1.71981 13.0453 1.89588C13.1183 2.07196 13.1558 2.26067 13.1558 2.45125V3.698" stroke="#A7A7A7" stroke-linecap="round" stroke-linejoin="round"/>
</svg>
