<svg width="12" height="4" viewBox="0 0 12 4" fill="none" xmlns="http://www.w3.org/2000/svg">
<path d="M0.799805 2.02246C0.799805 1.63965 0.902344 1.35026 1.10742 1.1543C1.3125 0.958333 1.611 0.860352 2.00293 0.860352C2.38118 0.860352 2.67285 0.960612 2.87793 1.16113C3.08757 1.36165 3.19238 1.64876 3.19238 2.02246C3.19238 2.38249 3.08757 2.66732 2.87793 2.87695C2.66829 3.08203 2.37663 3.18457 2.00293 3.18457C1.62012 3.18457 1.32389 3.08431 1.11426 2.88379C0.904622 2.67871 0.799805 2.3916 0.799805 2.02246ZM4.79199 2.02246C4.79199 1.63965 4.89453 1.35026 5.09961 1.1543C5.30469 0.958333 5.60319 0.860352 5.99512 0.860352C6.37337 0.860352 6.66504 0.960612 6.87012 1.16113C7.07975 1.36165 7.18457 1.64876 7.18457 2.02246C7.18457 2.38249 7.07975 2.66732 6.87012 2.87695C6.66048 3.08203 6.36882 3.18457 5.99512 3.18457C5.6123 3.18457 5.31608 3.08431 5.10645 2.88379C4.89681 2.67871 4.79199 2.3916 4.79199 2.02246ZM8.78418 2.02246C8.78418 1.63965 8.88672 1.35026 9.0918 1.1543C9.29688 0.958333 9.59538 0.860352 9.9873 0.860352C10.3656 0.860352 10.6572 0.960612 10.8623 1.16113C11.0719 1.36165 11.1768 1.64876 11.1768 2.02246C11.1768 2.38249 11.0719 2.66732 10.8623 2.87695C10.6527 3.08203 10.361 3.18457 9.9873 3.18457C9.60449 3.18457 9.30827 3.08431 9.09863 2.88379C8.889 2.67871 8.78418 2.3916 8.78418 2.02246Z" fill="black"/>
</svg>
