<svg width="13" height="23" viewBox="0 0 13 23" fill="none" xmlns="http://www.w3.org/2000/svg">
<g clip-path="url(#clip0_0_3646)">
<path d="M11.7012 22.6327H1.96154C1.43657 22.6327 1.0083 22.1772 1.0083 21.619V1.38101C1.0083 0.822725 1.43657 0.367279 1.96154 0.367279H11.7012C12.2262 0.367279 12.6544 0.822725 12.6544 1.38101V21.6116C12.6544 22.1772 12.2262 22.6327 11.7012 22.6327Z" stroke="#231F20" stroke-miterlimit="10" stroke-linecap="round" stroke-linejoin="round"/>
<path d="M6.41002 4.71606H3.61246C3.0115 4.71606 2.51416 4.18716 2.51416 3.54806C2.51416 2.90897 3.0115 2.38007 3.61246 2.38007H6.41002C7.01097 2.38007 7.50832 2.90897 7.50832 3.54806C7.50832 4.1945 7.01788 4.71606 6.41002 4.71606Z" stroke="#231F20" stroke-miterlimit="10" stroke-linecap="round" stroke-linejoin="round"/>
<path d="M0.677021 8.50656C0.497425 8.50656 0.345459 8.3523 0.345459 8.15396V5.89142C0.345459 5.70043 0.490517 5.53882 0.677021 5.53882C0.856617 5.53882 1.00858 5.69308 1.00858 5.89142V8.15396C1.00168 8.34495 0.856617 8.50656 0.677021 8.50656Z" stroke="#231F20" stroke-miterlimit="10" stroke-linecap="round" stroke-linejoin="round"/>
</g>
<defs>
<clipPath id="clip0_0_3646">
<rect width="13" height="23" fill="white"/>
</clipPath>
</defs>
</svg>
