<svg width="25" height="18" viewBox="0 0 25 18" fill="none" xmlns="http://www.w3.org/2000/svg">
<g clip-path="url(#clip0_0_3611)">
<path d="M19.919 10.7237C19.919 6.90206 16.5758 0.510971 12.4648 0.510971C8.35369 0.510971 5.0105 6.90206 5.0105 10.7237C5.0105 12.5581 5.79589 14.3173 7.19384 15.6144C8.59178 16.9115 10.4878 17.6402 12.4648 17.6402C14.4418 17.6402 16.3378 16.9115 17.7357 15.6144C19.1336 14.3173 19.919 12.5581 19.919 10.7237Z" fill="#F6F6F6" stroke="black" stroke-miterlimit="10"/>
<path d="M13.5819 9.42822H11.348C10.4912 9.42822 9.79663 10.0727 9.79663 10.8676V12.9404C9.79663 13.7354 10.4912 14.3798 11.348 14.3798H13.5819C14.4387 14.3798 15.1333 13.7354 15.1333 12.9404V10.8676C15.1333 10.0727 14.4387 9.42822 13.5819 9.42822Z" fill="white" stroke="black" stroke-miterlimit="10"/>
<path d="M11.3169 11.1771H13.6206" stroke="black" stroke-miterlimit="10" stroke-linecap="round"/>
<path d="M11.3169 12.631H13.6206" stroke="black" stroke-miterlimit="10" stroke-linecap="round"/>
<path d="M17.0803 3.28188C20.5398 -2.34627 25.6825 1.12282 24.4104 5.70019C23.2675 9.55078 20.9221 13.0014 17.6698 15.6178" stroke="black" stroke-miterlimit="10"/>
<path d="M7.91163 3.28188C4.45212 -2.34627 -0.690617 1.12282 0.58149 5.70019C1.71928 9.55289 4.06548 13.0048 7.32211 15.6178" stroke="black" stroke-miterlimit="10"/>
</g>
<defs>
<clipPath id="clip0_0_3611">
<rect width="25" height="18" fill="white"/>
</clipPath>
</defs>
</svg>
