<svg width="30" height="30" viewBox="0 0 30 30" fill="none" xmlns="http://www.w3.org/2000/svg">
<circle cx="15" cy="15" r="15" fill="#6E0EC0"/>
<path d="M22 15C22 11.1336 18.8664 8 15 8C11.1336 8 8 11.1336 8 15C8 18.8664 11.1336 22 15 22C15.041 22 15.082 22 15.123 21.9973V16.5504H13.6191V14.7977H15.123V13.507C15.123 12.0113 16.0363 11.1965 17.3707 11.1965C18.0105 11.1965 18.5602 11.243 18.7188 11.2648V12.8289H17.8C17.0754 12.8289 16.9332 13.1734 16.9332 13.6793V14.7949H18.6695L18.4426 16.5477H16.9332V21.7293C19.859 20.8898 22 18.1965 22 15Z" fill="white"/>
</svg>
