<svg width="19" height="22" viewBox="0 0 19 22" fill="none" xmlns="http://www.w3.org/2000/svg">
<g clip-path="url(#clip0_0_3597)">
<path d="M4.29601 0.457977C3.29877 0.559746 2.37429 1.0345 1.70191 1.79014C1.02954 2.54578 0.657227 3.5284 0.657227 4.54736C0.657227 5.56632 1.02954 6.54894 1.70191 7.30458C2.37429 8.06022 3.29877 8.53498 4.29601 8.63675V0.457977Z" fill="white" stroke="black" stroke-miterlimit="10"/>
<path d="M4.29663 0.457962C4.7454 0.457962 5.17579 0.639208 5.49312 0.961829C5.81045 1.28445 5.98873 1.72202 5.98873 2.17827V6.92233C5.98873 7.37859 5.81045 7.81615 5.49312 8.13878C5.17579 8.4614 4.7454 8.64264 4.29663 8.64264V0.457962Z" fill="white" stroke="black" stroke-miterlimit="10"/>
<path d="M0.289062 4.84387V14.0795C0.289062 14.4112 0.418683 14.7293 0.64937 14.9638C0.880057 15.1983 1.19292 15.3301 1.51916 15.3301C1.8444 15.3286 2.1558 15.1962 2.38524 14.9618C2.61468 14.7274 2.74347 14.4102 2.74347 14.0795V8.31974" stroke="black" stroke-miterlimit="10"/>
<path d="M1.51929 15.3301V20.0272C1.51929 20.4663 1.69089 20.8875 1.9963 21.198C2.30172 21.5085 2.71594 21.683 3.14786 21.683V21.683C3.57879 21.6814 3.99152 21.5062 4.29569 21.1959C4.59986 20.8856 4.77066 20.4653 4.77066 20.0272V18.4185C4.77066 18.107 4.89236 17.8084 5.10897 17.5881C5.32558 17.3679 5.61934 17.2442 5.92567 17.2442C6.232 17.2442 6.52577 17.3679 6.74238 17.5881C6.95898 17.8084 7.08069 18.107 7.08069 18.4185V21.683" stroke="black" stroke-miterlimit="10"/>
<path d="M14.7029 0.293564C15.7001 0.395333 16.6246 0.870091 17.297 1.62573C17.9694 2.38137 18.3417 3.36399 18.3417 4.38295C18.3417 5.40191 17.9694 6.3846 17.297 7.14024C16.6246 7.89588 15.7001 8.37064 14.7029 8.47241V0.293564Z" fill="white" stroke="black" stroke-miterlimit="10"/>
<path d="M14.7026 8.47237C14.4804 8.47237 14.2604 8.42788 14.0551 8.34143C13.8498 8.25498 13.6633 8.12827 13.5062 7.96852C13.349 7.80877 13.2244 7.61913 13.1394 7.41041C13.0543 7.20169 13.0105 6.97795 13.0105 6.75203V2.008C13.0105 1.55174 13.1888 1.1142 13.5062 0.791582C13.8235 0.468962 14.2539 0.287657 14.7026 0.287657L14.7026 8.4665V8.47237Z" fill="white" stroke="black" stroke-miterlimit="10"/>
<path d="M18.7117 4.67945V13.9093C18.7125 14.0732 18.6814 14.2357 18.6202 14.3874C18.559 14.5391 18.4689 14.677 18.3552 14.7932C18.2414 14.9094 18.1062 15.0017 17.9573 15.0646C17.8084 15.1275 17.6487 15.1598 17.4874 15.1598V15.1598C17.1612 15.1598 16.8483 15.0281 16.6176 14.7936C16.3869 14.559 16.2573 14.241 16.2573 13.9093V8.14945" stroke="black" stroke-miterlimit="10"/>
<path d="M17.4871 15.1598V19.8569C17.4871 20.296 17.3155 20.7172 17.0101 21.0278C16.7047 21.3383 16.2905 21.5127 15.8585 21.5127V21.5127C15.4266 21.5127 15.0123 21.3383 14.7069 21.0278C14.4015 20.7172 14.23 20.296 14.23 19.8569V18.2482C14.23 17.9367 14.1082 17.6381 13.8916 17.4179C13.675 17.1976 13.3813 17.0739 13.0749 17.0739C12.7686 17.0739 12.4748 17.1976 12.2582 17.4179C12.0416 17.6381 11.9199 17.9367 11.9199 18.2482V21.5127" stroke="black" stroke-miterlimit="10"/>
</g>
<defs>
<clipPath id="clip0_0_3597">
<rect width="19" height="22" fill="white"/>
</clipPath>
</defs>
</svg>
