<svg width="16" height="30" viewBox="0 0 16 30" fill="none" xmlns="http://www.w3.org/2000/svg">
<path d="M13.8256 24.115V18.0528C13.8256 16.8464 12.8293 15.8612 11.6093 15.8612H11.4568C10.2369 15.8612 9.24054 16.8464 9.24054 18.0528V26.5881C9.24054 27.7945 8.24423 28.7798 7.02425 28.7798H6.97342C5.75344 28.7798 4.75712 27.7945 4.75712 26.5881V16.0924" stroke="black" stroke-miterlimit="10" stroke-linecap="round" stroke-linejoin="round"/>
<path d="M1.06641 6.05173L1.06641 13.3505H8.44728V6.05173L1.06641 6.05173Z" stroke="black" stroke-miterlimit="10" stroke-linecap="round" stroke-linejoin="round"/>
<path d="M14.778 26.8879V24.1433H12.8768V26.8879H14.778Z" stroke="black" stroke-miterlimit="10" stroke-linecap="round" stroke-linejoin="round"/>
<path d="M5.70998 16.0972L5.70998 13.3526H3.80884L3.80884 16.0972H5.70998Z" stroke="black" stroke-miterlimit="10" stroke-linecap="round" stroke-linejoin="round"/>
<path d="M1.84049 6.05506L7.57439 6.05506V4.57721L1.84049 4.57721V6.05506Z" stroke="black" stroke-miterlimit="10" stroke-linecap="round" stroke-linejoin="round"/>
<path d="M6.32298 4.57121V1.02236" stroke="black" stroke-miterlimit="10" stroke-linecap="round" stroke-linejoin="round"/>
<path d="M3.19444 4.55109V0.992188" stroke="black" stroke-miterlimit="10" stroke-linecap="round" stroke-linejoin="round"/>
</svg>
