<svg width="25" height="25" viewBox="0 0 25 25" fill="none" xmlns="http://www.w3.org/2000/svg">
<path d="M12.5 1C9.45001 1 6.52494 2.2116 4.36827 4.36827C2.2116 6.52494 1 9.45001 1 12.5C1 15.55 2.2116 18.4751 4.36827 20.6317C6.52494 22.7884 9.45001 24 12.5 24C15.55 24 18.4751 22.7884 20.6317 20.6317C22.7884 18.4751 24 15.55 24 12.5C24 9.45001 22.7884 6.52494 20.6317 4.36827C18.4751 2.2116 15.55 1 12.5 1ZM11.6154 4.98077C12.0846 4.98077 12.5346 5.16717 12.8664 5.49897C13.1982 5.83076 13.3846 6.28077 13.3846 6.75C13.3846 7.21923 13.1982 7.66924 12.8664 8.00104C12.5346 8.33283 12.0846 8.51923 11.6154 8.51923C11.1462 8.51923 10.6961 8.33283 10.3643 8.00104C10.0326 7.66924 9.84615 7.21923 9.84615 6.75C9.84615 6.28077 10.0326 5.83076 10.3643 5.49897C10.6961 5.16717 11.1462 4.98077 11.6154 4.98077ZM15.1538 20.0192H9.84615C9.49566 20.0147 9.1608 19.8734 8.91294 19.6255C8.66508 19.3777 8.52381 19.0428 8.51923 18.6923C8.51923 18.3404 8.65903 18.0029 8.90788 17.754C9.15672 17.5052 9.49423 17.3654 9.84615 17.3654H10.9608C11.0157 17.3613 11.0674 17.3376 11.1063 17.2987C11.1453 17.2597 11.169 17.208 11.1731 17.1531V13.1723C11.1731 13.1113 11.1488 13.0528 11.1057 13.0097C11.0626 12.9665 11.0041 12.9423 10.9431 12.9423H9.84615C9.49566 12.9377 9.1608 12.7965 8.91294 12.5486C8.66508 12.3007 8.52381 11.9659 8.51923 11.6154C8.52381 11.2649 8.66508 10.93 8.91294 10.6822C9.1608 10.4343 9.49566 10.293 9.84615 10.2885H11.6154C12.2019 10.2885 12.7644 10.5215 13.1792 10.9362C13.5939 11.3509 13.8269 11.9135 13.8269 12.5V17.1354C13.8269 17.1656 13.8329 17.1955 13.8444 17.2234C13.856 17.2513 13.8729 17.2767 13.8943 17.298C13.9156 17.3194 13.941 17.3363 13.9689 17.3479C13.9968 17.3594 14.0267 17.3654 14.0569 17.3654H15.1538C15.5043 17.37 15.8392 17.5112 16.0871 17.7591C16.3349 18.007 16.4762 18.3418 16.4808 18.6923C16.4762 19.0428 16.3349 19.3777 16.0871 19.6255C15.8392 19.8734 15.5043 20.0147 15.1538 20.0192Z" stroke="black" stroke-width="1.2" stroke-miterlimit="10"/>
</svg>
