<svg width="18" height="24" viewBox="0 0 18 24" fill="none" xmlns="http://www.w3.org/2000/svg">
<g clip-path="url(#clip0_3_124)">
<path d="M1.76862 6.25183V17.996C1.76862 18.9554 2.5495 19.7388 3.50568 19.7388H3.91205C4.86822 19.7388 5.6491 18.9554 5.6491 17.996V7.25116C5.6491 6.2918 6.42998 5.50832 7.38615 5.50832C8.34233 5.50832 9.1232 6.2918 9.1232 7.25116V16.0693C9.1232 17.0286 9.90408 17.8121 10.8603 17.8121H10.9798C11.936 17.8121 12.7168 17.0286 12.7168 16.0693V5.28447C12.7168 4.32511 13.4977 3.54163 14.4539 3.54163H14.4937C15.4499 3.54163 16.2308 4.32511 16.2308 5.28447V16.9487" stroke="black" stroke-miterlimit="10" stroke-linecap="round" stroke-linejoin="round"/>
<path d="M17.5986 22.2704V18.2731H14.8655V22.2704H17.5986Z" stroke="black" stroke-miterlimit="10" stroke-linecap="round" stroke-linejoin="round"/>
<path d="M15.5698 17.4284V18.2758C15.5698 18.4517 15.7052 18.5876 15.8805 18.5876H16.5737C16.749 18.5876 16.8845 18.4517 16.8845 18.2758V17.4284C16.8845 17.0606 16.5897 16.7648 16.2231 16.7648C15.8646 16.7648 15.5698 17.0606 15.5698 17.4284Z" fill="black"/>
<path d="M16.889 23.5965V22.2694H15.5663V23.5965H16.889Z" stroke="black" stroke-miterlimit="10" stroke-linecap="round" stroke-linejoin="round"/>
<path d="M0.396236 1.72253L0.396236 5.71986H3.1293L3.1293 1.72253H0.396236Z" stroke="black" stroke-miterlimit="10" stroke-linecap="round" stroke-linejoin="round"/>
<path d="M2.4226 6.57162V5.72418C2.4226 5.5483 2.28714 5.41239 2.11184 5.41239H1.41862C1.24332 5.41239 1.10786 5.5483 1.10786 5.72418V6.57162C1.10786 6.93937 1.40268 7.23518 1.76922 7.23518C2.12778 7.22718 2.4226 6.93138 2.4226 6.57162Z" fill="black"/>
<path d="M1.10493 0.396449V1.72356H2.42764V0.396449H1.10493Z" stroke="black" stroke-miterlimit="10" stroke-linecap="round" stroke-linejoin="round"/>
</g>
<defs>
<clipPath id="clip0_3_124">
<rect width="18" height="24" fill="white"/>
</clipPath>
</defs>
</svg>
