<svg width="19" height="22" viewBox="0 0 19 22" fill="none" xmlns="http://www.w3.org/2000/svg">
<g clip-path="url(#clip0_3_167)">
<path d="M4.29604 0.457977C3.2988 0.559746 2.37432 1.0345 1.70194 1.79014C1.02956 2.54578 0.657253 3.5284 0.657253 4.54736C0.657253 5.56632 1.02956 6.54894 1.70194 7.30458C2.37432 8.06022 3.2988 8.53498 4.29604 8.63675V0.457977Z" fill="white" stroke="black" stroke-miterlimit="10"/>
<path d="M4.2966 0.457977C4.74538 0.457977 5.17577 0.639224 5.4931 0.961844C5.81043 1.28446 5.9887 1.72203 5.9887 2.17829V6.92235C5.9887 7.3786 5.81043 7.81617 5.4931 8.13879C5.17577 8.46141 4.74538 8.64266 4.2966 8.64266V0.457977Z" fill="white" stroke="black" stroke-miterlimit="10"/>
<path d="M0.289047 4.84387V14.0795C0.289047 14.4112 0.418668 14.7293 0.649355 14.9638C0.880042 15.1983 1.1929 15.3301 1.51914 15.3301C1.84438 15.3286 2.15579 15.1962 2.38523 14.9618C2.61467 14.7274 2.74346 14.4102 2.74345 14.0795V8.31974" stroke="black" stroke-miterlimit="10"/>
<path d="M1.51926 15.3301V20.0272C1.51926 20.4663 1.69086 20.8875 1.99627 21.198C2.30169 21.5085 2.71591 21.683 3.14783 21.683V21.683C3.57875 21.6814 3.99149 21.5062 4.29566 21.1959C4.59983 20.8855 4.77063 20.4653 4.77063 20.0272V18.4185C4.77063 18.107 4.89233 17.8084 5.10894 17.5881C5.32555 17.3679 5.61931 17.2442 5.92564 17.2442C6.23197 17.2442 6.52574 17.3679 6.74234 17.5881C6.95895 17.8084 7.08066 18.107 7.08066 18.4185V21.683" stroke="black" stroke-miterlimit="10"/>
<path d="M14.7028 0.293549C15.7 0.395317 16.6245 0.870075 17.2969 1.62571C17.9692 2.38135 18.3416 3.36397 18.3416 4.38293C18.3416 5.4019 17.9692 6.38458 17.2969 7.14022C16.6245 7.89586 15.7 8.37062 14.7028 8.47239V0.293549Z" fill="white" stroke="black" stroke-miterlimit="10"/>
<path d="M14.7027 8.47238C14.4805 8.47238 14.2605 8.42789 14.0552 8.34144C13.8499 8.25498 13.6634 8.12827 13.5063 7.96853C13.3491 7.80878 13.2245 7.61914 13.1395 7.41042C13.0544 7.2017 13.0106 6.97795 13.0106 6.75204V2.00801C13.0106 1.55175 13.1889 1.11421 13.5063 0.79159C13.8236 0.468969 14.254 0.287664 14.7027 0.287664L14.7027 8.4665V8.47238Z" fill="white" stroke="black" stroke-miterlimit="10"/>
<path d="M18.7116 4.67944V13.9093C18.7124 14.0732 18.6813 14.2357 18.6201 14.3874C18.5589 14.5391 18.4688 14.677 18.3551 14.7932C18.2413 14.9094 18.1061 15.0016 17.9572 15.0646C17.8083 15.1275 17.6486 15.1598 17.4873 15.1598V15.1598C17.1611 15.1598 16.8482 15.0281 16.6175 14.7936C16.3868 14.559 16.2572 14.241 16.2572 13.9093V8.14944" stroke="black" stroke-miterlimit="10"/>
<path d="M17.4872 15.1598V19.8569C17.4872 20.296 17.3156 20.7172 17.0101 21.0277C16.7047 21.3383 16.2905 21.5127 15.8586 21.5127V21.5127C15.4267 21.5127 15.0124 21.3383 14.707 21.0277C14.4016 20.7172 14.23 20.296 14.23 19.8569V18.2482C14.23 17.9367 14.1083 17.6381 13.8917 17.4178C13.6751 17.1976 13.3813 17.0739 13.075 17.0739C12.7687 17.0739 12.4749 17.1976 12.2583 17.4178C12.0416 17.6381 11.92 17.9367 11.92 18.2482V21.5127" stroke="black" stroke-miterlimit="10"/>
</g>
<defs>
<clipPath id="clip0_3_167">
<rect width="19" height="22" fill="white"/>
</clipPath>
</defs>
</svg>
