<svg width="15" height="26" viewBox="0 0 15 26" fill="none" xmlns="http://www.w3.org/2000/svg">
<path d="M13.3751 25.2654H2.76055C2.18842 25.2654 1.72168 24.7691 1.72168 24.1606V2.10479C1.72168 1.49636 2.18842 1 2.76055 1H13.3751C13.9472 1 14.4139 1.49636 14.4139 2.10479V24.1526C14.4139 24.7691 13.9472 25.2654 13.3751 25.2654Z" stroke="white" stroke-miterlimit="10" stroke-linecap="round" stroke-linejoin="round"/>
<path d="M7.6086 5.7394H4.55975C3.90481 5.7394 3.36279 5.16299 3.36279 4.46649C3.36279 3.76999 3.90481 3.19357 4.55975 3.19357H7.6086C8.26353 3.19357 8.80555 3.76999 8.80555 4.46649C8.80555 5.17099 8.27106 5.7394 7.6086 5.7394Z" stroke="white" stroke-miterlimit="10" stroke-linecap="round" stroke-linejoin="round"/>
<path d="M1.36134 9.8704C1.16562 9.8704 1 9.70228 1 9.48612V7.02035C1 6.8122 1.15809 6.63608 1.36134 6.63608C1.55707 6.63608 1.72269 6.8042 1.72269 7.02035V9.48612C1.71516 9.69427 1.55707 9.8704 1.36134 9.8704Z" stroke="white" stroke-miterlimit="10" stroke-linecap="round" stroke-linejoin="round"/>
</svg>
