<svg width="12" height="4" viewBox="0 0 12 4" fill="none" xmlns="http://www.w3.org/2000/svg">
<path d="M0.799805 2.02246C0.799805 1.59408 0.916016 1.29329 1.14844 1.12012C1.38542 0.94694 1.67025 0.860352 2.00293 0.860352C2.3265 0.860352 2.60449 0.94694 2.83691 1.12012C3.07389 1.29329 3.19238 1.59408 3.19238 2.02246C3.19238 2.43262 3.07389 2.72884 2.83691 2.91113C2.60449 3.09342 2.3265 3.18457 2.00293 3.18457C1.67025 3.18457 1.38542 3.09342 1.14844 2.91113C0.916016 2.72884 0.799805 2.43262 0.799805 2.02246ZM4.79199 2.02246C4.79199 1.59408 4.9082 1.29329 5.14062 1.12012C5.3776 0.94694 5.66243 0.860352 5.99512 0.860352C6.31868 0.860352 6.59668 0.94694 6.8291 1.12012C7.06608 1.29329 7.18457 1.59408 7.18457 2.02246C7.18457 2.43262 7.06608 2.72884 6.8291 2.91113C6.59668 3.09342 6.31868 3.18457 5.99512 3.18457C5.66243 3.18457 5.3776 3.09342 5.14062 2.91113C4.9082 2.72884 4.79199 2.43262 4.79199 2.02246ZM8.78418 2.02246C8.78418 1.59408 8.90039 1.29329 9.13281 1.12012C9.36979 0.94694 9.65462 0.860352 9.9873 0.860352C10.3109 0.860352 10.5889 0.94694 10.8213 1.12012C11.0583 1.29329 11.1768 1.59408 11.1768 2.02246C11.1768 2.43262 11.0583 2.72884 10.8213 2.91113C10.5889 3.09342 10.3109 3.18457 9.9873 3.18457C9.65462 3.18457 9.36979 3.09342 9.13281 2.91113C8.90039 2.72884 8.78418 2.43262 8.78418 2.02246Z" fill="black"/>
</svg>
