<svg width="96" height="76" viewBox="0 0 96 76" fill="none" xmlns="http://www.w3.org/2000/svg">
<path d="M68.4711 17.3506H20.0737V39.7388H68.4711V17.3506Z" stroke="#231F20" stroke-width="1.5" stroke-linecap="round" stroke-linejoin="round"/>
<path d="M1.35938 62.1272L10.3858 53.9443L28.18 71.3038L24.5648 75.0001" fill="white"/>
<path d="M1.35938 62.1272L10.3858 53.9443L28.18 71.3038L24.5648 75.0001" stroke="#231F20" stroke-width="1.5" stroke-linecap="round" stroke-linejoin="round"/>
<path d="M13.9243 57.3997L19.6096 52.7624C23.2141 49.8322 27.7378 48.2352 32.4034 48.2457H50.0986C51.0642 48.2477 51.9895 48.6284 52.6715 49.3045C53.3536 49.9805 53.7366 50.8965 53.7366 51.8515C53.7366 52.8059 53.3533 53.7212 52.6711 54.396C51.9888 55.0708 51.0635 55.4499 50.0986 55.4499H41.0113" fill="white"/>
<path d="M13.9243 57.3997L19.6096 52.7624C23.2141 49.8322 27.7378 48.2352 32.4034 48.2457H50.0986C51.0642 48.2477 51.9895 48.6284 52.6715 49.3045C53.3536 49.9805 53.7366 50.8965 53.7366 51.8515V51.8515C53.7366 52.8059 53.3533 53.7212 52.6711 54.396C51.9888 55.0708 51.0635 55.4499 50.0986 55.4499H41.0113" stroke="#231F20" stroke-width="1.5" stroke-linecap="round" stroke-linejoin="round"/>
<path d="M24.0854 67.2989L26.0034 65.4019C26.5035 64.9087 27.0971 64.5179 27.75 64.2518C28.403 63.9857 29.1026 63.8495 29.8088 63.8511H46.682C48.4332 63.8506 50.1664 63.5019 51.7785 62.8255C53.3906 62.1491 54.8487 61.159 56.0662 59.914L68.1826 48.208C68.8027 47.5727 69.1454 46.7217 69.1369 45.8387C69.1283 44.9557 68.7692 44.1114 68.137 43.4879V43.4879C67.5043 42.8631 66.6489 42.5091 65.7549 42.5021C64.861 42.495 64 42.8356 63.3574 43.4503L53.7677 51.8139" stroke="#231F20" stroke-width="1.5" stroke-linecap="round" stroke-linejoin="round"/>
<path d="M47.313 17.0799L54.9847 6.45785C55.6229 5.57767 56.4638 4.86049 57.4379 4.36565C58.412 3.87082 59.4912 3.61259 60.5863 3.6123H84.7659" stroke="#231F20" stroke-width="1.5" stroke-linecap="round" stroke-linejoin="round"/>
<path d="M94.3172 1H84.7656V25.8649H94.3172V1Z" stroke="#231F20" stroke-width="1.5" stroke-linecap="round" stroke-linejoin="round"/>
<path d="M68.6987 27.3178H74.521C75.3704 27.3172 76.2044 27.0931 76.9374 26.6684C77.6703 26.2438 78.2758 25.6339 78.6918 24.9013V24.9013C79.1077 24.1687 79.7132 23.5588 80.4461 23.1342C81.1791 22.7095 82.0131 22.4854 82.8625 22.4849H84.7652" stroke="#231F20" stroke-width="1.5" stroke-linecap="round" stroke-linejoin="round"/>
<path d="M61.8804 14.8965L52.3288 25.0216C52.0475 25.3222 51.829 25.6747 51.6859 26.0591C51.5428 26.4434 51.4779 26.8519 51.4948 27.2611C51.5118 27.6703 51.6103 28.0722 51.7848 28.4436C51.9593 28.815 52.2062 29.1487 52.5115 29.4255C53.1112 29.9718 53.9022 30.2661 54.7173 30.2465C55.5324 30.2268 56.3079 29.8946 56.8801 29.3201L63.4634 22.6954C63.7233 22.4229 64.0432 22.2132 64.3982 22.0826C64.7533 21.9521 65.134 21.9042 65.5108 21.9427C68.1517 22.2212 74.4992 22.3115 76.7367 17.0419" fill="white"/>
<path d="M61.8804 14.8965L52.3288 25.0216C52.0475 25.3222 51.829 25.6747 51.6859 26.0591C51.5428 26.4434 51.4779 26.8519 51.4948 27.2611C51.5118 27.6703 51.6103 28.0722 51.7848 28.4436C51.9593 28.815 52.2062 29.1487 52.5115 29.4255V29.4255C53.1112 29.9718 53.9022 30.2661 54.7173 30.2465C55.5324 30.2268 56.3079 29.8946 56.8801 29.3201L63.4634 22.6954C63.7233 22.4229 64.0432 22.2132 64.3982 22.0826C64.7533 21.9521 65.134 21.9042 65.5108 21.9427C68.1517 22.2212 74.4992 22.3115 76.7367 17.0419" stroke="#231F20" stroke-width="1.5" stroke-linecap="round" stroke-linejoin="round"/>
<path d="M20.4985 33.3931C21.3484 33.3921 22.19 33.5569 22.9754 33.8781C23.7607 34.1994 24.4743 34.6706 25.0752 35.265C25.6761 35.8594 26.1526 36.5652 26.4773 37.3419C26.8021 38.1187 26.9688 38.9513 26.9677 39.7918" stroke="#231F20" stroke-width="1.5" stroke-linecap="round" stroke-linejoin="round"/>
<path d="M26.9677 17.3506C26.9687 18.1915 26.8021 19.0244 26.4775 19.8016C26.1528 20.5788 25.6765 21.2851 25.0757 21.88C24.4748 22.475 23.7613 22.947 22.976 23.2691C22.1906 23.5911 21.3487 23.7569 20.4985 23.7569" stroke="#231F20" stroke-width="1.5" stroke-linecap="round" stroke-linejoin="round"/>
<path d="M61.4468 39.099C61.4488 37.4025 62.131 35.7761 63.3438 34.5765C64.5566 33.377 66.2009 32.7022 67.916 32.7002" stroke="#231F20" stroke-width="1.5" stroke-linecap="round" stroke-linejoin="round"/>
</svg>
