<svg width="14" height="22" viewBox="0 0 14 22" fill="none" xmlns="http://www.w3.org/2000/svg">
<path d="M11.5501 1H2.79447C1.80341 1 1 1.8004 1 2.78775V18.8415C1 19.8289 1.80341 20.6293 2.79447 20.6293H11.5501C12.5411 20.6293 13.3445 19.8289 13.3445 18.8415V2.78775C13.3445 1.8004 12.5411 1 11.5501 1Z" stroke="#6E0EC0" stroke-miterlimit="10"/>
<path d="M4.72742 1H9.61103V1.55792C9.61103 1.7043 9.55267 1.84469 9.44877 1.94819C9.34488 2.0517 9.20396 2.10985 9.05703 2.10985H5.28142C5.13449 2.10985 4.99357 2.0517 4.88968 1.94819C4.78578 1.84469 4.72742 1.7043 4.72742 1.55792V1Z" stroke="#6E0EC0" stroke-miterlimit="10"/>
<path d="M7.17224 19.1415C7.79748 19.1415 8.30433 18.6365 8.30433 18.0136C8.30433 17.3908 7.79748 16.8858 7.17224 16.8858C6.54701 16.8858 6.04016 17.3908 6.04016 18.0136C6.04016 18.6365 6.54701 19.1415 7.17224 19.1415Z" stroke="#6E0EC0" stroke-miterlimit="10"/>
</svg>
