<svg width="22" height="13" viewBox="0 0 22 13" fill="none" xmlns="http://www.w3.org/2000/svg">
<path d="M19.2427 12.3834H2.43938C1.67488 12.3834 1.06641 11.7329 1.06641 10.9524V2.43106C1.06641 1.63422 1.69048 1 2.43938 1H19.2427C20.0072 1 20.6156 1.65048 20.6156 2.43106V10.9361C20.6312 11.7329 20.0072 12.3834 19.2427 12.3834Z" stroke="#231F20" stroke-miterlimit="10" stroke-linecap="round" stroke-linejoin="round"/>
<path d="M21.4284 4.62645H20.8667V8.757H21.4284V4.62645Z" stroke="#231F20" stroke-miterlimit="10" stroke-linecap="round" stroke-linejoin="round"/>
<path d="M5.51366 10.8873H2.68971C2.6117 10.8873 2.53369 10.8223 2.53369 10.7247V2.65874C2.53369 2.57743 2.5961 2.49612 2.68971 2.49612H5.51366C5.59167 2.49612 5.66968 2.56117 5.66968 2.65874V10.7247C5.66968 10.806 5.60727 10.8873 5.51366 10.8873Z" stroke="#231F20" stroke-miterlimit="10" stroke-linecap="round" stroke-linejoin="round"/>
<path d="M10.0525 10.8873H7.22853C7.15052 10.8873 7.07251 10.8223 7.07251 10.7247V2.65874C7.07251 2.57743 7.13492 2.49612 7.22853 2.49612H10.0681C10.1461 2.49612 10.2241 2.56117 10.2241 2.65874V10.7247C10.2085 10.806 10.1305 10.8873 10.0525 10.8873Z" stroke="#231F20" stroke-miterlimit="10" stroke-linecap="round" stroke-linejoin="round"/>
<path d="M14.5942 10.8873H11.7547C11.6766 10.8873 11.5986 10.8223 11.5986 10.7247V2.65874C11.5986 2.57743 11.661 2.49612 11.7547 2.49612H14.5942C14.6722 2.49612 14.7502 2.56117 14.7502 2.65874V10.7247C14.7346 10.806 14.6722 10.8873 14.5942 10.8873Z" stroke="#231F20" stroke-miterlimit="10" stroke-linecap="round" stroke-linejoin="round"/>
</svg>
