<svg width="26" height="25" viewBox="0 0 26 25" fill="none" xmlns="http://www.w3.org/2000/svg">
<path d="M25.5049 22.038L19.0202 16.1879C20.3226 14.0593 20.844 11.5275 20.4917 9.04297C20.1394 6.55841 18.9362 4.28207 17.0961 2.61874C15.0258 0.773821 12.3255 -0.159537 9.58436 0.0223627C6.8432 0.204262 4.28367 1.48664 2.46417 3.58969C0.803619 5.58351 -0.0729361 8.13666 0.00475561 10.7537C0.0824473 13.3707 1.10884 15.8649 2.88461 17.7522C4.66039 19.6394 7.05896 20.7852 9.61481 20.9672C12.1707 21.1491 14.7015 20.3542 16.7162 18.7367L23.2245 24.5867C23.5246 24.8604 23.9151 25.0079 24.3172 24.9994C24.6577 25.0087 24.9925 24.9094 25.2753 24.7152C25.558 24.5211 25.7744 24.2417 25.8946 23.916C26.0148 23.5903 26.0327 23.2344 25.9458 22.8978C25.8589 22.5612 25.6716 22.2607 25.4098 22.038H25.5049ZM4.98202 16.7219C3.79711 15.6543 2.94777 14.2523 2.54101 12.6924C2.13426 11.1325 2.18822 9.48441 2.69614 7.9558C3.20406 6.42718 4.14323 5.08628 5.39535 4.10201C6.64747 3.11774 8.15661 2.53408 9.73268 2.42451H10.3027C11.6008 2.41763 12.881 2.73348 14.033 3.34478C15.1851 3.95608 16.1744 4.84454 16.9156 5.93353C17.6569 7.02251 18.1279 8.27934 18.288 9.59575C18.4481 10.9122 18.2925 12.2486 17.8347 13.4899C17.3768 14.7312 16.6305 15.8401 15.66 16.721C14.6894 17.6019 13.5238 18.2284 12.2636 18.5465C11.0034 18.8646 9.68639 18.8646 8.42613 18.5468C7.16586 18.2289 6.00026 17.6027 5.02957 16.7219H4.98202Z" fill="white"/>
</svg>
