<svg width="20" height="19" viewBox="0 0 20 19" fill="none" xmlns="http://www.w3.org/2000/svg">
<path d="M19.5054 16.0181L14.7825 11.7868C15.731 10.2471 16.1108 8.41588 15.8542 6.61879C15.5976 4.8217 14.7213 3.17522 13.3812 1.97213C11.8733 0.637695 9.90663 -0.0374058 7.91018 0.0941627C5.91374 0.225731 4.04958 1.15328 2.7244 2.67442C1.51498 4.11656 0.876567 5.96326 0.933151 7.85614C0.989736 9.74903 1.73728 11.5531 3.03061 12.9182C4.32394 14.2833 6.07088 15.112 7.93236 15.2436C9.79384 15.3752 11.6371 14.8002 13.1044 13.6303L17.8446 17.8616C18.0632 18.0596 18.3475 18.1663 18.6404 18.1601C18.8884 18.1669 19.1323 18.095 19.3382 17.9546C19.5441 17.8141 19.7017 17.6121 19.7893 17.3765C19.8768 17.1409 19.8898 16.8835 19.8265 16.64C19.7633 16.3966 19.6268 16.1792 19.4362 16.0181H19.5054ZM4.5582 12.173C3.6952 11.4008 3.07661 10.3867 2.78036 9.25842C2.48411 8.13013 2.52341 6.93809 2.89334 5.83244C3.26327 4.72678 3.94729 3.75691 4.85924 3.04498C5.77118 2.33306 6.87032 1.91089 8.0182 1.83164H8.43338C9.37879 1.82667 10.3112 2.05512 11.1502 2.49728C11.9893 2.93943 12.7098 3.58206 13.2497 4.36973C13.7896 5.15739 14.1326 6.06646 14.2492 7.01862C14.3658 7.97078 14.2525 8.93744 13.919 9.83527C13.5856 10.7331 13.042 11.5352 12.3352 12.1723C11.6283 12.8095 10.7793 13.2627 9.8615 13.4927C8.94367 13.7228 7.98449 13.7228 7.06661 13.4929C6.14874 13.263 5.2998 12.8101 4.59283 12.173H4.5582Z" fill="#A7A7A7"/>
</svg>
