<svg width="16" height="16" viewBox="0 0 16 16" fill="none" xmlns="http://www.w3.org/2000/svg">
<path d="M5.17627 5.64862C4.59215 5.64893 4.02231 5.46806 3.54529 5.13094C3.06827 4.79383 2.70755 4.31706 2.51284 3.76634H0.94114C0.691534 3.76634 0.452151 3.66719 0.275653 3.49069C0.0991548 3.31419 0 3.07481 0 2.8252C0 2.5756 0.0991548 2.33621 0.275653 2.15972C0.452151 1.98322 0.691534 1.88406 0.94114 1.88406H2.51284C2.63628 1.53419 2.82746 1.21207 3.07546 0.936124C3.32346 0.660179 3.62342 0.435818 3.95818 0.275866C4.29294 0.115915 4.65595 0.0235098 5.02644 0.00393331C5.39694 -0.0156432 5.76766 0.0379929 6.11741 0.161775C6.8223 0.412956 7.39865 0.933692 7.71983 1.60957C8.041 2.28545 8.08073 3.06119 7.83028 3.76634C7.63611 4.31554 7.27683 4.79125 6.80168 5.12823C6.32653 5.46521 5.75878 5.64699 5.17627 5.64862ZM6.11741 13.1777C6.11741 13.4274 6.01825 13.6667 5.84176 13.8432C5.66526 14.0197 5.42587 14.1189 5.17627 14.1189H0.94114C0.691534 14.1189 0.452151 14.0197 0.275653 13.8432C0.0991548 13.6667 0 13.4274 0 13.1777C0 12.9281 0.0991548 12.6888 0.275653 12.5123C0.452151 12.3358 0.691534 12.2366 0.94114 12.2366H5.17627C5.42587 12.2366 5.66526 12.3358 5.84176 12.5123C6.01825 12.6888 6.11741 12.9281 6.11741 13.1777ZM10.3525 10.3543C10.9351 10.356 11.5028 10.5377 11.978 10.8747C12.4531 11.2117 12.8124 11.6874 13.0066 12.2366H15.0582C15.3078 12.2366 15.5472 12.3358 15.7237 12.5123C15.9002 12.6888 15.9994 12.9281 15.9994 13.1777C15.9994 13.4274 15.9002 13.6667 15.7237 13.8432C15.5472 14.0197 15.3078 14.1189 15.0582 14.1189H13.0066C12.7572 14.8233 12.2387 15.4001 11.5649 15.7229C10.891 16.0457 10.1166 16.0883 9.4114 15.8412C9.06152 15.7177 8.73941 15.5266 8.46346 15.2786C8.18752 15.0305 7.96316 14.7306 7.80321 14.3958C7.64325 14.0611 7.55085 13.6981 7.53127 13.3276C7.51169 12.9571 7.56533 12.5864 7.68911 12.2366C7.88382 11.6859 8.24454 11.2091 8.72156 10.872C9.19858 10.5349 9.76842 10.354 10.3525 10.3543ZM15.0582 3.76634H10.3525C10.1029 3.76634 9.86355 3.66719 9.68705 3.49069C9.51056 3.31419 9.4114 3.07481 9.4114 2.8252C9.4114 2.5756 9.51056 2.33621 9.68705 2.15972C9.86355 1.98322 10.1029 1.88406 10.3525 1.88406H15.0582C15.3078 1.88406 15.5472 1.98322 15.7237 2.15972C15.9002 2.33621 15.9994 2.5756 15.9994 2.8252C15.9994 3.07481 15.9002 3.31419 15.7237 3.49069C15.5472 3.66719 15.3078 3.76634 15.0582 3.76634Z" fill="#6E0EC0"/>
</svg>
