<svg width="23" height="18" viewBox="0 0 23 18" fill="none" xmlns="http://www.w3.org/2000/svg">
<path d="M1 13.5655V10.8791C1 8.82545 2.66437 7.17081 4.70833 7.17081H18.2764C20.3301 7.17081 21.9847 8.83518 21.9847 10.8791V13.5655C21.9847 15.6192 20.3203 17.2738 18.2764 17.2738H4.70833C2.66437 17.2836 1 15.6192 1 13.5655Z" stroke="black" stroke-miterlimit="10" stroke-linecap="round" stroke-linejoin="round"/>
<path d="M4.35718 7.17081V17.2836" stroke="black" stroke-miterlimit="10" stroke-linecap="round" stroke-linejoin="round"/>
<path d="M18.2751 17.2836V7.27791" stroke="black" stroke-miterlimit="10" stroke-linecap="round" stroke-linejoin="round"/>
<path d="M13.1467 11.0544H9.47729V13.4974H13.1467V11.0544Z" fill="black" stroke="black" stroke-miterlimit="10" stroke-linecap="round" stroke-linejoin="round"/>
<path d="M6.92676 5.50645C6.92676 3.01476 8.94152 1 11.4332 1C13.9249 1 15.9397 3.01476 15.9397 5.50645" stroke="black" stroke-miterlimit="10" stroke-linecap="round" stroke-linejoin="round"/>
<path d="M8.43555 5.5065C8.43555 3.85187 9.77872 2.49896 11.4431 2.49896C13.1075 2.49896 14.4506 3.84213 14.4506 5.5065" stroke="black" stroke-miterlimit="10" stroke-linecap="round" stroke-linejoin="round"/>
<path d="M10.033 5.50649C10.033 4.72783 10.6656 4.10491 11.4345 4.10491C12.2132 4.10491 12.8361 4.73757 12.8361 5.50649" stroke="black" stroke-miterlimit="10" stroke-linecap="round" stroke-linejoin="round"/>
</svg>
