<svg width="23" height="22" viewBox="0 0 23 22" fill="none" xmlns="http://www.w3.org/2000/svg">
<path d="M11.2466 11.5456C14.4228 11.5456 17.0079 8.95536 17.0079 5.7728C17.0079 2.59024 14.4228 0 11.2466 0C8.07041 0 5.48535 2.59024 5.48535 5.7728C5.48535 8.95536 8.07041 11.5456 11.2466 11.5456ZM11.2466 0.761834C14.0046 0.761834 16.2476 3.00925 16.2476 5.7728C16.2476 8.53635 14.0046 10.7838 11.2466 10.7838C8.48858 10.7838 6.24566 8.53635 6.24566 5.7728C6.24566 3.00925 8.48858 0.761834 11.2466 0.761834Z" fill="#231F20"/>
<path d="M22.4406 18.3036C22.4311 16.6218 20.7698 13.5935 19.9905 12.8755C19.3575 12.2946 18.0384 12.506 16.0407 12.826C14.5866 13.0583 12.9386 13.3231 11.2203 13.325C9.50201 13.3231 7.85404 13.0583 6.39994 12.826C4.40222 12.506 3.08308 12.2946 2.45012 12.8755C1.67081 13.5916 0.00952486 16.6218 2.09652e-05 18.3036C-0.00187981 18.7854 0.125472 19.1511 0.380177 19.3911C2.25624 21.1547 8.43758 21.7337 11.1937 21.7395C11.2013 21.7395 11.2108 21.7395 11.2203 21.7395C11.2279 21.7395 11.2374 21.7395 11.2469 21.7395C14.0031 21.7318 20.1844 21.1547 22.0605 19.3911C22.3152 19.1511 22.4425 18.7835 22.4406 18.3036ZM21.5396 18.835C19.9354 20.3453 14.043 20.9738 11.2203 20.9776C8.39766 20.9738 2.50715 20.3453 0.90099 18.835C0.809753 18.7493 0.758431 18.5607 0.760332 18.3074C0.767935 16.8847 2.27715 14.0678 2.96524 13.4355C3.32638 13.1041 4.76147 13.3326 6.28019 13.5764C7.68297 13.8011 9.42408 14.0792 11.1937 14.0849V14.0868C11.2032 14.0868 11.2108 14.0868 11.2203 14.0868C11.2298 14.0868 11.2374 14.0868 11.2469 14.0868V14.0849C13.0185 14.0792 14.7596 13.8011 16.1604 13.5764C17.6792 13.3326 19.1142 13.1041 19.4754 13.4355C20.1635 14.0678 21.6727 16.8847 21.6803 18.3074C21.6822 18.5607 21.6309 18.7493 21.5396 18.835Z" fill="#231F20"/>
</svg>
