<svg width="25" height="18" viewBox="0 0 25 18" fill="none" xmlns="http://www.w3.org/2000/svg">
<path d="M22.5383 16.7937H2.46135C1.64764 16.7937 1 16.1423 1 15.3606V8.48871C1 7.69078 1.66425 7.05569 2.46135 7.05569H22.5383C23.3521 7.05569 23.9997 7.70706 23.9997 8.48871V15.3606C24.0163 16.1423 23.3521 16.7937 22.5383 16.7937Z" stroke="black" stroke-miterlimit="10" stroke-linecap="round" stroke-linejoin="round"/>
<path d="M10.1998 7.03942H4.07203C3.59045 7.03942 3.20851 6.66488 3.20851 6.19264C3.20851 5.72039 3.59045 5.34586 4.07203 5.34586H10.1998C10.6813 5.34586 11.0633 5.72039 11.0633 6.19264C11.0633 6.66488 10.6813 7.03942 10.1998 7.03942Z" stroke="black" stroke-miterlimit="10" stroke-linecap="round" stroke-linejoin="round"/>
<path d="M6.77968 0.574585H2.47866V2.317H3.35879C4.27214 2.317 5.01942 3.04979 5.01942 3.94542V5.36215" stroke="black" stroke-miterlimit="10" stroke-linecap="round" stroke-linejoin="round"/>
<path d="M6.78193 0.574585H11.083V2.317H10.2028C9.28948 2.317 8.54219 3.04979 8.54219 3.94542V5.36215" stroke="black" stroke-miterlimit="10" stroke-linecap="round" stroke-linejoin="round"/>
<path d="M16.6924 14.3998C18.1323 14.3998 19.2995 13.2552 19.2995 11.8432C19.2995 10.4312 18.1323 9.28659 16.6924 9.28659C15.2524 9.28659 14.0852 10.4312 14.0852 11.8432C14.0852 13.2552 15.2524 14.3998 16.6924 14.3998Z" stroke="black" stroke-miterlimit="10" stroke-linecap="round" stroke-linejoin="round"/>
<path d="M16.69 12.9995C17.3411 12.9995 17.869 12.4818 17.869 11.8433C17.869 11.2047 17.3411 10.6871 16.69 10.6871C16.0388 10.6871 15.5109 11.2047 15.5109 11.8433C15.5109 12.4818 16.0388 12.9995 16.69 12.9995Z" stroke="black" stroke-miterlimit="10" stroke-linecap="round" stroke-linejoin="round"/>
<path d="M3.3886 9.35175H11.2434" stroke="black" stroke-miterlimit="10" stroke-linecap="round" stroke-linejoin="round"/>
<path d="M3.3886 14.3835H11.2434" stroke="black" stroke-miterlimit="10" stroke-linecap="round" stroke-linejoin="round"/>
</svg>
